<?xml version="1.0" encoding="UTF-8" standalone="no"?>
<!DOCTYPE svg PUBLIC "-//W3C//DTD SVG 1.1//EN" "http://www.w3.org/Graphics/SVG/1.1/DTD/svg11.dtd">
<svg width="100%" height="100%" viewBox="0 0 5906 4170" version="1.1" xmlns="http://www.w3.org/2000/svg" xmlns:xlink="http://www.w3.org/1999/xlink" xml:space="preserve" xmlns:serif="http://www.serif.com/" style="fill-rule:evenodd;clip-rule:evenodd;stroke-linecap:round;stroke-linejoin:round;stroke-miterlimit:10;">
    <g transform="matrix(4.16667,0,0,4.16667,0,-3315.85)">
        <path d="M123.879,891.913L123.879,904.692C123.879,906.606 122.325,908.16 120.411,908.16L107.48,908.16C105.566,908.16 104.012,906.606 104.012,904.692L104.012,891.913C104.012,889.999 105.566,888.445 107.48,888.445L120.411,888.445C122.325,888.445 123.879,889.999 123.879,891.913Z" style="fill:rgb(250,170,69);stroke:rgb(233,231,232);stroke-width:0.24px;"/>
    </g>
    <g transform="matrix(4.16667,0,0,4.16667,0,-3315.85)">
        <path d="M149.497,891.913L149.497,904.692C149.497,906.606 147.943,908.16 146.028,908.16L133.098,908.16C131.184,908.16 129.63,906.606 129.63,904.692L129.63,891.913C129.63,889.999 131.184,888.445 133.098,888.445L146.028,888.445C147.943,888.445 149.497,889.999 149.497,891.913Z" style="fill:rgb(252,187,105);stroke:rgb(233,231,232);stroke-width:0.24px;"/>
    </g>
    <g transform="matrix(4.16667,0,0,4.16667,0,-3315.85)">
        <path d="M175.114,891.913L175.114,904.692C175.114,906.606 173.56,908.16 171.646,908.16L158.716,908.16C156.802,908.16 155.248,906.606 155.248,904.692L155.248,891.913C155.248,889.999 156.802,888.445 158.716,888.445L171.646,888.445C173.56,888.445 175.114,889.999 175.114,891.913Z" style="fill:rgb(254,204,142);stroke:rgb(233,231,232);stroke-width:0.24px;"/>
    </g>
    <g transform="matrix(4.16667,0,0,4.16667,0,-3315.85)">
        <path d="M200.732,891.913L200.732,904.692C200.732,906.606 199.178,908.16 197.264,908.16L184.334,908.16C182.419,908.16 180.865,906.606 180.865,904.692L180.865,891.913C180.865,889.999 182.419,888.445 184.334,888.445L197.264,888.445C199.178,888.445 200.732,889.999 200.732,891.913Z" style="fill:rgb(252,181,93);stroke:rgb(233,231,232);stroke-width:0.24px;"/>
    </g>
    <g transform="matrix(4.16667,0,0,4.16667,0,-3101.95)">
        <path d="M123.879,866.245L123.879,879.023C123.879,880.937 122.325,882.492 120.411,882.492L107.48,882.492C105.566,882.492 104.012,880.937 104.012,879.023L104.012,866.245C104.012,864.33 105.566,862.776 107.48,862.776L120.411,862.776C122.325,862.776 123.879,864.33 123.879,866.245Z" style="fill:rgb(252,182,96);stroke:rgb(233,231,232);stroke-width:0.24px;"/>
    </g>
    <g transform="matrix(4.16667,0,0,4.16667,0,-3101.95)">
        <path d="M149.497,866.245L149.497,879.023C149.497,880.937 147.943,882.492 146.028,882.492L133.098,882.492C131.184,882.492 129.63,880.937 129.63,879.023L129.63,866.245C129.63,864.33 131.184,862.776 133.098,862.776L146.028,862.776C147.943,862.776 149.497,864.33 149.497,866.245Z" style="fill:rgb(249,157,43);stroke:rgb(233,231,232);stroke-width:0.24px;"/>
    </g>
    <g transform="matrix(4.16667,0,0,4.16667,0,-3101.95)">
        <path d="M175.114,866.245L175.114,879.023C175.114,880.937 173.56,882.492 171.646,882.492L158.716,882.492C156.802,882.492 155.248,880.937 155.248,879.023L155.248,866.245C155.248,864.33 156.802,862.776 158.716,862.776L171.646,862.776C173.56,862.776 175.114,864.33 175.114,866.245Z" style="fill:rgb(252,189,112);stroke:rgb(233,231,232);stroke-width:0.24px;"/>
    </g>
    <g transform="matrix(4.16667,0,0,4.16667,0,-3101.95)">
        <path d="M200.732,866.245L200.732,879.023C200.732,880.937 199.178,882.492 197.264,882.492L184.334,882.492C182.419,882.492 180.865,880.937 180.865,879.023L180.865,866.245C180.865,864.33 182.419,862.776 184.334,862.776L197.264,862.776C199.178,862.776 200.732,864.33 200.732,866.245Z" style="fill:rgb(240,193,138);stroke:rgb(233,231,232);stroke-width:0.24px;"/>
    </g>
    <g transform="matrix(4.16667,0,0,4.16667,0,-2888.05)">
        <path d="M123.879,840.577L123.879,853.355C123.879,855.27 122.325,856.824 120.411,856.824L107.48,856.824C105.566,856.824 104.012,855.27 104.012,853.355L104.012,840.577C104.012,838.663 105.566,837.108 107.48,837.108L120.411,837.108C122.325,837.108 123.879,838.663 123.879,840.577Z" style="fill:rgb(252,188,108);stroke:rgb(233,231,232);stroke-width:0.24px;"/>
    </g>
    <g transform="matrix(4.16667,0,0,4.16667,0,-2888.05)">
        <path d="M149.497,840.577L149.497,853.355C149.497,855.27 147.943,856.824 146.028,856.824L133.098,856.824C131.184,856.824 129.63,855.27 129.63,853.355L129.63,840.577C129.63,838.663 131.184,837.108 133.098,837.108L146.028,837.108C147.943,837.108 149.497,838.663 149.497,840.577Z" style="fill:rgb(253,193,121);stroke:rgb(233,231,232);stroke-width:0.24px;"/>
    </g>
    <g transform="matrix(4.16667,0,0,4.16667,0,-2888.05)">
        <path d="M175.114,840.577L175.114,853.355C175.114,855.27 173.56,856.824 171.646,856.824L158.716,856.824C156.802,856.824 155.248,855.27 155.248,853.355L155.248,840.577C155.248,838.663 156.802,837.108 158.716,837.108L171.646,837.108C173.56,837.108 175.114,838.663 175.114,840.577Z" style="fill:rgb(254,211,158);stroke:rgb(233,231,232);stroke-width:0.24px;"/>
    </g>
    <g transform="matrix(4.16667,0,0,4.16667,0,-2888.05)">
        <path d="M200.732,840.577L200.732,853.355C200.732,855.27 199.178,856.824 197.264,856.824L184.334,856.824C182.419,856.824 180.865,855.27 180.865,853.355L180.865,840.577C180.865,838.663 182.419,837.108 184.334,837.108L197.264,837.108C199.178,837.108 200.732,838.663 200.732,840.577Z" style="fill:rgb(248,155,38);stroke:rgb(233,231,232);stroke-width:0.24px;"/>
    </g>
    <g transform="matrix(4.16667,0,0,4.16667,0,-2674.15)">
        <path d="M123.879,814.908L123.879,827.687C123.879,829.601 122.325,831.155 120.411,831.155L107.48,831.155C105.566,831.155 104.012,829.601 104.012,827.687L104.012,814.908C104.012,812.994 105.566,811.44 107.48,811.44L120.411,811.44C122.325,811.44 123.879,812.994 123.879,814.908Z" style="fill:rgb(251,179,89);stroke:rgb(233,231,232);stroke-width:0.24px;"/>
    </g>
    <g transform="matrix(4.16667,0,0,4.16667,0,-2674.15)">
        <path d="M149.497,814.908L149.497,827.687C149.497,829.601 147.943,831.155 146.028,831.155L133.098,831.155C131.184,831.155 129.63,829.601 129.63,827.687L129.63,814.908C129.63,812.994 131.184,811.44 133.098,811.44L146.028,811.44C147.943,811.44 149.497,812.994 149.497,814.908Z" style="fill:rgb(254,215,165);stroke:rgb(233,231,232);stroke-width:0.24px;"/>
    </g>
    <g transform="matrix(4.16667,0,0,4.16667,0,-2674.15)">
        <path d="M175.114,814.908L175.114,827.687C175.114,829.601 173.56,831.155 171.646,831.155L158.716,831.155C156.802,831.155 155.248,829.601 155.248,827.687L155.248,814.908C155.248,812.994 156.802,811.44 158.716,811.44L171.646,811.44C173.56,811.44 175.114,812.994 175.114,814.908Z" style="fill:rgb(250,170,69);stroke:rgb(233,231,232);stroke-width:0.24px;"/>
    </g>
    <g transform="matrix(4.16667,0,0,4.16667,0,-2674.15)">
        <path d="M200.732,814.908L200.732,827.687C200.732,829.601 199.178,831.155 197.264,831.155L184.334,831.155C182.419,831.155 180.865,829.601 180.865,827.687L180.865,814.908C180.865,812.994 182.419,811.44 184.334,811.44L197.264,811.44C199.178,811.44 200.732,812.994 200.732,814.908Z" style="fill:rgb(253,194,122);stroke:rgb(233,231,232);stroke-width:0.24px;"/>
    </g>
    <g transform="matrix(4.16667,0,0,4.16667,0,-3316.06)">
        <path d="M517.479,891.954L517.479,904.701C517.479,906.61 515.929,908.16 514.019,908.16L501.072,908.16C499.162,908.16 497.612,906.61 497.612,904.701L497.612,891.954C497.612,890.044 499.162,888.494 501.072,888.494L514.019,888.494C515.929,888.494 517.479,890.044 517.479,891.954Z" style="fill:rgb(179,118,176);stroke:rgb(233,231,232);stroke-width:0.24px;"/>
    </g>
    <g transform="matrix(4.16667,0,0,4.16667,0,-3316.06)">
        <path d="M543.097,891.954L543.097,904.701C543.097,906.61 541.546,908.16 539.637,908.16L526.69,908.16C524.78,908.16 523.23,906.61 523.23,904.701L523.23,891.954C523.23,890.044 524.78,888.494 526.69,888.494L539.637,888.494C541.546,888.494 543.097,890.044 543.097,891.954Z" style="fill:rgb(209,149,194);stroke:rgb(233,231,232);stroke-width:0.24px;"/>
    </g>
    <g transform="matrix(4.16667,0,0,4.16667,0,-3316.06)">
        <path d="M568.714,891.954L568.714,904.701C568.714,906.61 567.164,908.16 565.255,908.16L552.307,908.16C550.398,908.16 548.848,906.61 548.848,904.701L548.848,891.954C548.848,890.044 550.398,888.494 552.307,888.494L565.255,888.494C567.164,888.494 568.714,890.044 568.714,891.954Z" style="fill:rgb(203,140,189);stroke:rgb(233,231,232);stroke-width:0.24px;"/>
    </g>
    <g transform="matrix(4.16667,0,0,4.16667,0,-3316.06)">
        <path d="M594.332,891.954L594.332,904.701C594.332,906.61 592.782,908.16 590.872,908.16L577.925,908.16C576.016,908.16 574.465,906.61 574.465,904.701L574.465,891.954C574.465,890.044 576.016,888.494 577.925,888.494L590.872,888.494C592.782,888.494 594.332,890.044 594.332,891.954Z" style="fill:rgb(179,118,176);stroke:rgb(233,231,232);stroke-width:0.24px;"/>
    </g>
    <g transform="matrix(4.16667,0,0,4.16667,0,-3102.68)">
        <path d="M517.479,866.348L517.479,879.095C517.479,881.005 515.929,882.555 514.019,882.555L501.072,882.555C499.162,882.555 497.612,881.005 497.612,879.095L497.612,866.348C497.612,864.439 499.162,862.889 501.072,862.889L514.019,862.889C515.929,862.889 517.479,864.439 517.479,866.348Z" style="fill:rgb(204,141,190);stroke:rgb(233,231,232);stroke-width:0.24px;"/>
    </g>
    <g transform="matrix(4.16667,0,0,4.16667,0,-3102.68)">
        <path d="M543.097,866.348L543.097,879.095C543.097,881.005 541.546,882.555 539.637,882.555L526.69,882.555C524.78,882.555 523.23,881.005 523.23,879.095L523.23,866.348C523.23,864.439 524.78,862.889 526.69,862.889L539.637,862.889C541.546,862.889 543.097,864.439 543.097,866.348Z" style="fill:rgb(188,110,173);stroke:rgb(233,231,232);stroke-width:0.24px;"/>
    </g>
    <g transform="matrix(4.16667,0,0,4.16667,0,-3102.68)">
        <path d="M568.714,866.348L568.714,879.095C568.714,881.005 567.164,882.555 565.255,882.555L552.307,882.555C550.398,882.555 548.848,881.005 548.848,879.095L548.848,866.348C548.848,864.439 550.398,862.889 552.307,862.889L565.255,862.889C567.164,862.889 568.714,864.439 568.714,866.348Z" style="fill:rgb(211,147,193);stroke:rgb(233,231,232);stroke-width:0.24px;"/>
    </g>
    <g transform="matrix(4.16667,0,0,4.16667,0,-3102.68)">
        <path d="M594.332,866.348L594.332,879.095C594.332,881.005 592.782,882.555 590.872,882.555L577.925,882.555C576.016,882.555 574.465,881.005 574.465,879.095L574.465,866.348C574.465,864.439 576.016,862.889 577.925,862.889L590.872,862.889C592.782,862.889 594.332,864.439 594.332,866.348Z" style="fill:rgb(214,157,199);stroke:rgb(233,231,232);stroke-width:0.24px;"/>
    </g>
    <g transform="matrix(4.16667,0,0,4.16667,0,-2889.32)">
        <path d="M517.479,840.745L517.479,853.492C517.479,855.401 515.929,856.951 514.019,856.951L501.072,856.951C499.162,856.951 497.612,855.401 497.612,853.492L497.612,840.745C497.612,838.835 499.162,837.285 501.072,837.285L514.019,837.285C515.929,837.285 517.479,838.835 517.479,840.745Z" style="fill:rgb(215,163,202);stroke:rgb(233,231,232);stroke-width:0.24px;"/>
    </g>
    <g transform="matrix(4.16667,0,0,4.16667,0,-2889.32)">
        <path d="M543.097,840.745L543.097,853.492C543.097,855.401 541.546,856.951 539.637,856.951L526.69,856.951C524.78,856.951 523.23,855.401 523.23,853.492L523.23,840.745C523.23,838.835 524.78,837.285 526.69,837.285L539.637,837.285C541.546,837.285 543.097,838.835 543.097,840.745Z" style="fill:rgb(205,142,190);stroke:rgb(233,231,232);stroke-width:0.24px;"/>
    </g>
    <g transform="matrix(4.16667,0,0,4.16667,0,-2889.32)">
        <path d="M568.714,840.745L568.714,853.492C568.714,855.401 567.164,856.951 565.255,856.951L552.307,856.951C550.398,856.951 548.848,855.401 548.848,853.492L548.848,840.745C548.848,838.835 550.398,837.285 552.307,837.285L565.255,837.285C567.164,837.285 568.714,838.835 568.714,840.745Z" style="fill:rgb(220,169,206);stroke:rgb(233,231,232);stroke-width:0.24px;"/>
    </g>
    <g transform="matrix(4.16667,0,0,4.16667,0,-2889.32)">
        <path d="M594.332,840.745L594.332,853.492C594.332,855.401 592.782,856.951 590.872,856.951L577.925,856.951C576.016,856.951 574.465,855.401 574.465,853.492L574.465,840.745C574.465,838.835 576.016,837.285 577.925,837.285L590.872,837.285C592.782,837.285 594.332,838.835 594.332,840.745Z" style="fill:rgb(176,98,167);stroke:rgb(233,231,232);stroke-width:0.24px;"/>
    </g>
    <g transform="matrix(4.16667,0,0,4.16667,0,-2675.94)">
        <path d="M517.479,815.139L517.479,827.886C517.479,829.796 515.929,831.346 514.019,831.346L501.072,831.346C499.162,831.346 497.612,829.796 497.612,827.886L497.612,815.139C497.612,813.23 499.162,811.68 501.072,811.68L514.019,811.68C515.929,811.68 517.479,813.23 517.479,815.139Z" style="fill:rgb(179,118,176);stroke:rgb(233,231,232);stroke-width:0.24px;"/>
    </g>
    <g transform="matrix(4.16667,0,0,4.16667,0,-2675.94)">
        <path d="M543.097,815.139L543.097,827.886C543.097,829.796 541.546,831.346 539.637,831.346L526.69,831.346C524.78,831.346 523.23,829.796 523.23,827.886L523.23,815.139C523.23,813.23 524.78,811.68 526.69,811.68L539.637,811.68C541.546,811.68 543.097,813.23 543.097,815.139Z" style="fill:rgb(197,131,184);stroke:rgb(233,231,232);stroke-width:0.24px;"/>
    </g>
    <g transform="matrix(4.16667,0,0,4.16667,0,-2675.94)">
        <path d="M568.714,815.139L568.714,827.886C568.714,829.796 567.164,831.346 565.255,831.346L552.307,831.346C550.398,831.346 548.848,829.796 548.848,827.886L548.848,815.139C548.848,813.23 550.398,811.68 552.307,811.68L565.255,811.68C567.164,811.68 568.714,813.23 568.714,815.139Z" style="fill:rgb(210,150,195);stroke:rgb(233,231,232);stroke-width:0.24px;"/>
    </g>
    <g transform="matrix(4.16667,0,0,4.16667,0,-2675.94)">
        <path d="M594.332,815.139L594.332,827.886C594.332,829.796 592.782,831.346 590.872,831.346L577.925,831.346C576.016,831.346 574.465,829.796 574.465,827.886L574.465,815.139C574.465,813.23 576.016,811.68 577.925,811.68L590.872,811.68C592.782,811.68 594.332,813.23 594.332,815.139Z" style="fill:rgb(212,150,194);stroke:rgb(233,231,232);stroke-width:0.24px;"/>
    </g>
    <g transform="matrix(4.16667,0,0,4.16667,0,-3145.96)">
        <rect x="1092.59" y="874.311" width="242.366" height="7.209" style="fill:rgb(45,161,72);"/>
    </g>
    <g transform="matrix(4.16667,0,0,4.16667,0,-3145.96)">
        <rect x="879.84" y="874.311" width="67.605" height="7.209" style="fill:rgb(142,86,75);"/>
    </g>
    <g transform="matrix(4.16667,0,0,4.16667,0,-3145.96)">
        <rect x="946.861" y="874.311" width="59.228" height="7.209" style="fill:rgb(189,189,50);"/>
    </g>
    <g transform="matrix(4.16667,0,0,4.16667,0,-3145.96)">
        <rect x="1005.89" y="874.311" width="34.484" height="7.209" style="fill:rgb(33,119,180);"/>
    </g>
    <g transform="matrix(4.16667,0,0,4.16667,0,-3145.96)">
        <rect x="1039.6" y="874.311" width="53.383" height="7.209" style="fill:rgb(129,127,127);"/>
    </g>
    <g transform="matrix(4.16667,0,0,4.16667,0,-3145.96)">
        <rect x="1334.37" y="874.311" width="54.747" height="7.209" style="fill:rgb(142,86,75);"/>
    </g>
    <g transform="matrix(4.16667,0,0,4.16667,0,-2959.96)">
        <rect x="1092.59" y="851.991" width="177.248" height="7.209" style="fill:rgb(45,161,72);"/>
    </g>
    <g transform="matrix(4.16667,0,0,4.16667,0,-2959.96)">
        <rect x="879.84" y="851.991" width="67.605" height="7.209" style="fill:rgb(142,86,75);"/>
    </g>
    <g transform="matrix(4.16667,0,0,4.16667,0,-2959.96)">
        <rect x="946.861" y="851.991" width="59.228" height="7.209" style="fill:rgb(189,189,50);"/>
    </g>
    <g transform="matrix(4.16667,0,0,4.16667,0,-2959.96)">
        <rect x="1005.89" y="851.991" width="34.484" height="7.209" style="fill:rgb(36,191,207);"/>
    </g>
    <g transform="matrix(4.16667,0,0,4.16667,0,-2959.96)">
        <rect x="1039.6" y="851.991" width="53.383" height="7.209" style="fill:rgb(129,127,127);"/>
    </g>
    <g transform="matrix(4.16667,0,0,4.16667,0,-2959.96)">
        <rect x="1269.81" y="851.991" width="54.747" height="7.209" style="fill:rgb(142,86,75);"/>
    </g>
    <g transform="matrix(4.16667,0,0,4.16667,0,-2165.96)">
        <rect x="1092.59" y="756.711" width="218.528" height="7.209" style="fill:rgb(45,161,72);"/>
    </g>
    <g transform="matrix(4.16667,0,0,4.16667,0,-2165.96)">
        <rect x="883.92" y="756.711" width="63.525" height="7.209" style="fill:rgb(142,86,75);"/>
    </g>
    <g transform="matrix(4.16667,0,0,4.16667,0,-2165.96)">
        <rect x="946.861" y="756.711" width="59.228" height="7.209" style="fill:rgb(189,189,50);"/>
    </g>
    <g transform="matrix(4.16667,0,0,4.16667,0,-2165.96)">
        <rect x="1005.89" y="756.711" width="34.484" height="7.209" style="fill:rgb(33,119,180);"/>
    </g>
    <g transform="matrix(4.16667,0,0,4.16667,0,-2165.96)">
        <rect x="1039.6" y="756.711" width="53.383" height="7.209" style="fill:rgb(129,127,127);"/>
    </g>
    <g transform="matrix(4.16667,0,0,4.16667,0,-2165.96)">
        <rect x="1310.37" y="756.711" width="54.747" height="7.209" style="fill:rgb(142,86,75);"/>
    </g>
    <g transform="matrix(4.16667,0,0,4.16667,0,-1985.96)">
        <rect x="1092.59" y="735.111" width="218.528" height="7.209" style="fill:rgb(45,161,72);"/>
    </g>
    <g transform="matrix(4.16667,0,0,4.16667,0,-1985.96)">
        <rect x="879.84" y="735.111" width="67.605" height="7.209" style="fill:rgb(142,86,75);"/>
    </g>
    <g transform="matrix(4.16667,0,0,4.16667,0,-1985.96)">
        <rect x="946.861" y="735.111" width="59.228" height="7.209" style="fill:rgb(189,189,50);"/>
    </g>
    <g transform="matrix(4.16667,0,0,4.16667,0,-1985.96)">
        <rect x="1005.89" y="735.111" width="34.484" height="7.209" style="fill:rgb(33,119,180);"/>
    </g>
    <g transform="matrix(4.16667,0,0,4.16667,0,-1985.96)">
        <rect x="1039.6" y="735.111" width="53.383" height="7.209" style="fill:rgb(129,127,127);"/>
    </g>
    <g transform="matrix(4.16667,0,0,4.16667,0,-1985.96)">
        <rect x="1310.37" y="735.111" width="37.947" height="7.209" style="fill:rgb(142,86,75);"/>
    </g>
    <g transform="matrix(4.16667,0,0,4.16667,0,-1805.96)">
        <rect x="1092.59" y="713.511" width="170.768" height="7.209" style="fill:rgb(45,161,72);"/>
    </g>
    <g transform="matrix(4.16667,0,0,4.16667,0,-1805.96)">
        <rect x="883.44" y="713.511" width="64.005" height="7.209" style="fill:rgb(142,86,75);"/>
    </g>
    <g transform="matrix(4.16667,0,0,4.16667,0,-1805.96)">
        <rect x="946.861" y="713.511" width="59.228" height="7.209" style="fill:rgb(189,189,50);"/>
    </g>
    <g transform="matrix(4.16667,0,0,4.16667,0,-1805.96)">
        <rect x="1005.89" y="713.511" width="34.484" height="7.209" style="fill:rgb(36,191,207);"/>
    </g>
    <g transform="matrix(4.16667,0,0,4.16667,0,-1805.96)">
        <rect x="1039.6" y="713.511" width="53.383" height="7.209" style="fill:rgb(129,127,127);"/>
    </g>
    <g transform="matrix(4.16667,0,0,4.16667,0,-1805.96)">
        <rect x="1262.37" y="713.511" width="37.947" height="7.209" style="fill:rgb(142,86,75);"/>
    </g>
    <g transform="matrix(4.16667,0,0,4.16667,0,-1625.96)">
        <rect x="1092.59" y="691.911" width="170.528" height="7.209" style="fill:rgb(45,161,72);"/>
    </g>
    <g transform="matrix(4.16667,0,0,4.16667,0,-1625.96)">
        <rect x="884.16" y="691.911" width="63.285" height="7.209" style="fill:rgb(142,86,75);"/>
    </g>
    <g transform="matrix(4.16667,0,0,4.16667,0,-1625.96)">
        <rect x="946.861" y="691.911" width="59.228" height="7.209" style="fill:rgb(189,189,50);"/>
    </g>
    <g transform="matrix(4.16667,0,0,4.16667,0,-1625.96)">
        <rect x="1005.89" y="691.911" width="34.484" height="7.209" style="fill:rgb(36,191,207);"/>
    </g>
    <g transform="matrix(4.16667,0,0,4.16667,0,-1625.96)">
        <rect x="1039.6" y="691.911" width="53.383" height="7.209" style="fill:rgb(129,127,127);"/>
    </g>
    <g transform="matrix(4.16667,0,0,4.16667,0,-1625.96)">
        <rect x="1262.37" y="691.911" width="48.747" height="7.209" style="fill:rgb(142,86,75);"/>
    </g>
    <g transform="matrix(4.16667,0,0,4.16667,0,44.289)">
        <rect x="1093.79" y="491.481" width="218.528" height="7.209" style="fill:rgb(45,161,72);"/>
    </g>
    <g transform="matrix(4.16667,0,0,4.16667,0,44.289)">
        <rect x="885.12" y="491.481" width="63.525" height="7.209" style="fill:rgb(142,86,75);"/>
    </g>
    <g transform="matrix(4.16667,0,0,4.16667,0,44.289)">
        <rect x="948.061" y="491.481" width="59.228" height="7.209" style="fill:rgb(189,189,50);"/>
    </g>
    <g transform="matrix(4.16667,0,0,4.16667,0,44.289)">
        <rect x="1007.09" y="491.481" width="34.484" height="7.209" style="fill:rgb(33,119,180);"/>
    </g>
    <g transform="matrix(4.16667,0,0,4.16667,0,44.289)">
        <rect x="1040.8" y="491.481" width="53.383" height="7.209" style="fill:rgb(129,127,127);"/>
    </g>
    <g transform="matrix(4.16667,0,0,4.16667,0,44.289)">
        <rect x="1311.57" y="491.481" width="54.747" height="7.209" style="fill:rgb(142,86,75);"/>
    </g>
    <g transform="matrix(4.16667,0,0,4.16667,0,224.289)">
        <rect x="1093.79" y="469.881" width="218.528" height="7.209" style="fill:rgb(45,161,72);"/>
    </g>
    <g transform="matrix(4.16667,0,0,4.16667,0,224.289)">
        <rect x="915.36" y="469.881" width="33.285" height="7.209" style="fill:rgb(142,86,75);"/>
    </g>
    <g transform="matrix(4.16667,0,0,4.16667,0,224.289)">
        <rect x="948.061" y="469.881" width="59.228" height="7.209" style="fill:rgb(189,189,50);"/>
    </g>
    <g transform="matrix(4.16667,0,0,4.16667,0,224.289)">
        <rect x="1007.09" y="469.881" width="34.484" height="7.209" style="fill:rgb(33,119,180);"/>
    </g>
    <g transform="matrix(4.16667,0,0,4.16667,0,224.289)">
        <rect x="1040.8" y="469.881" width="53.383" height="7.209" style="fill:rgb(129,127,127);"/>
    </g>
    <g transform="matrix(4.16667,0,0,4.16667,0,224.289)">
        <rect x="1311.57" y="469.881" width="11.547" height="7.209" style="fill:rgb(142,86,75);"/>
    </g>
    <g transform="matrix(4.16667,0,0,4.16667,0,404.289)">
        <rect x="1093.79" y="448.281" width="170.768" height="7.209" style="fill:rgb(45,161,72);"/>
    </g>
    <g transform="matrix(4.16667,0,0,4.16667,0,404.289)">
        <rect x="884.64" y="448.281" width="64.005" height="7.209" style="fill:rgb(142,86,75);"/>
    </g>
    <g transform="matrix(4.16667,0,0,4.16667,0,404.289)">
        <rect x="948.061" y="448.281" width="59.228" height="7.209" style="fill:rgb(189,189,50);"/>
    </g>
    <g transform="matrix(4.16667,0,0,4.16667,0,404.289)">
        <rect x="1007.09" y="448.281" width="34.484" height="7.209" style="fill:rgb(36,191,207);"/>
    </g>
    <g transform="matrix(4.16667,0,0,4.16667,0,404.289)">
        <rect x="1040.8" y="448.281" width="53.383" height="7.209" style="fill:rgb(129,127,127);"/>
    </g>
    <g transform="matrix(4.16667,0,0,4.16667,0,404.289)">
        <rect x="1263.57" y="448.281" width="37.947" height="7.209" style="fill:rgb(142,86,75);"/>
    </g>
    <g transform="matrix(4.16667,0,0,4.16667,0,584.289)">
        <rect x="1093.79" y="426.681" width="170.528" height="7.209" style="fill:rgb(45,161,72);"/>
    </g>
    <g transform="matrix(4.16667,0,0,4.16667,0,584.289)">
        <rect x="885.36" y="426.681" width="63.285" height="7.209" style="fill:rgb(142,86,75);"/>
    </g>
    <g transform="matrix(4.16667,0,0,4.16667,0,584.289)">
        <rect x="948.061" y="426.681" width="59.228" height="7.209" style="fill:rgb(189,189,50);"/>
    </g>
    <g transform="matrix(4.16667,0,0,4.16667,0,584.289)">
        <rect x="1007.09" y="426.681" width="34.484" height="7.209" style="fill:rgb(36,191,207);"/>
    </g>
    <g transform="matrix(4.16667,0,0,4.16667,0,584.289)">
        <rect x="1040.8" y="426.681" width="53.383" height="7.209" style="fill:rgb(129,127,127);"/>
    </g>
    <g transform="matrix(4.16667,0,0,4.16667,0,584.289)">
        <rect x="1263.57" y="426.681" width="30.747" height="7.209" style="fill:rgb(142,86,75);"/>
    </g>
    <g transform="matrix(4.16667,0,0,4.16667,0,3459.15)">
        <rect x="473.605" y="81.698" width="34.485" height="7.209" style="fill:rgb(33,119,180);"/>
    </g>
    <g transform="matrix(4.16667,0,0,4.16667,0,3661.15)">
        <rect x="473.605" y="57.458" width="81.12" height="7.209" style="fill:rgb(189,189,50);"/>
    </g>
    <g transform="matrix(4.16667,0,0,4.16667,0,3879.15)">
        <rect x="473.605" y="31.298" width="82.8" height="7.209" style="fill:rgb(142,86,75);"/>
    </g>
    <g transform="matrix(4.16667,0,0,4.16667,0,3471.15)">
        <rect x="724.165" y="80.258" width="81.84" height="7.209" style="fill:rgb(129,127,127);"/>
    </g>
    <g transform="matrix(4.16667,0,0,4.16667,0,3663.15)">
        <rect x="724.405" y="57.218" width="81.12" height="7.209" style="fill:rgb(45,161,72);"/>
    </g>
    <g transform="matrix(4.16667,0,0,4.16667,0,3861.15)">
        <rect x="729.445" y="33.458" width="3.36" height="7.209" style="fill:rgb(237,31,36);"/>
    </g>
    <g transform="matrix(4.16667,0,0,4.16667,0,3861.15)">
        <rect x="757.285" y="33.458" width="1.92" height="7.209" style="fill:rgb(237,31,36);"/>
    </g>
    <g transform="matrix(4.16667,0,0,4.16667,0,3861.15)">
        <rect x="786.085" y="33.458" width="0.72" height="7.209" style="fill:rgb(237,31,36);"/>
    </g>
    <g transform="matrix(4.16667,0,0,4.16667,0,3861.15)">
        <rect x="793.285" y="33.458" width="1.92" height="7.209" style="fill:rgb(237,31,36);"/>
    </g>
    <g transform="matrix(4.16667,0,0,4.16667,0,3861.15)">
        <rect x="741.205" y="33.458" width="1.2" height="7.209" style="fill:rgb(237,31,36);"/>
    </g>
    <g transform="matrix(4.16667,0,0,4.16667,0,3861.15)">
        <rect x="748.405" y="33.458" width="1.2" height="7.209" style="fill:rgb(237,31,36);"/>
    </g>
    <g transform="matrix(4.16667,0,0,4.16667,0,3861.15)">
        <rect x="772.405" y="33.458" width="0.48" height="7.209" style="fill:rgb(237,31,36);"/>
    </g>
    <g transform="matrix(4.16667,0,0,4.16667,0,3459.15)">
        <rect x="521.605" y="81.698" width="34.485" height="7.209" style="fill:rgb(36,191,207);"/>
    </g>
    <g transform="matrix(0,4.16667,4.16667,0,2717.44,-2133.19)">
        <rect x="1078.88" y="429.434" width="7.199" height="1.71" style="fill:rgb(237,31,36);"/>
    </g>
    <g transform="matrix(0.00173611,4.16667,4.16667,-0.00173611,2269.31,-1685.97)">
        <rect x="971.727" y="429.155" width="7.2" height="2.261" style="fill:rgb(237,31,36);"/>
    </g>
    <g transform="matrix(0.00520833,4.16666,4.16666,-0.00520833,2143.91,-1562.28)">
        <rect x="942.403" y="429.889" width="7.2" height="0.789" style="fill:rgb(237,31,36);"/>
    </g>
    <g transform="matrix(4.16667,0,0,4.16667,0,584.308)">
        <rect x="903.208" y="426.683" width="0.553" height="7.2" style="fill:rgb(237,31,36);"/>
    </g>
    <g transform="matrix(4.16667,0,0,4.16667,0,584.275)">
        <rect x="1237.1" y="426.687" width="1.59" height="7.2" style="fill:rgb(237,31,36);"/>
    </g>
    <g transform="matrix(0.00578703,4.16666,4.16666,-0.00578703,3518.5,-2939.12)">
        <rect x="1272.9" y="429.921" width="7.2" height="0.73" style="fill:rgb(237,31,36);"/>
    </g>
    <g transform="matrix(0,4.16667,4.16667,0,3336.11,-2931.84)">
        <rect x="1248.95" y="451.093" width="7.199" height="1.59" style="fill:rgb(237,31,36);"/>
    </g>
    <g transform="matrix(0,4.16667,4.16667,0,3500.53,-3096.26)">
        <rect x="1288.41" y="451.002" width="7.199" height="1.77" style="fill:rgb(237,31,36);"/>
    </g>
    <g transform="matrix(0,4.16667,4.16667,0,3500.53,-3096.26)">
        <rect x="1288.41" y="451.002" width="7.199" height="1.77" style="fill:rgb(237,31,36);"/>
    </g>
    <g transform="matrix(0,4.16667,4.16667,0,3113.74,-2889.46)">
        <rect x="1217.18" y="472.692" width="7.199" height="1.59" style="fill:rgb(237,31,36);"/>
    </g>
    <g transform="matrix(0.00578703,4.16666,4.16666,-0.00578703,3092.92,-3052.95)">
        <rect x="1235.51" y="494.602" width="7.2" height="0.97" style="fill:rgb(237,31,36);"/>
    </g>
    <g transform="matrix(0.00578703,4.16666,4.16666,-0.00578703,3387.8,-3348.25)">
        <rect x="1306.38" y="494.603" width="7.2" height="0.97" style="fill:rgb(237,31,36);"/>
    </g>
    <g transform="matrix(0.00578703,4.16666,4.16666,-0.00578703,3428.45,-3388.96)">
        <rect x="1316.15" y="494.603" width="7.2" height="0.97" style="fill:rgb(237,31,36);"/>
    </g>
    <g transform="matrix(0,4.16667,4.16667,0,2940.46,-2356.17)">
        <rect x="1132.39" y="429.061" width="7.199" height="2.45" style="fill:rgb(237,31,36);"/>
    </g>
    <g transform="matrix(4.16667,0,0,4.16667,0,584.283)">
        <rect x="1201.97" y="426.686" width="0.98" height="7.2" style="fill:rgb(237,31,36);"/>
    </g>
    <g transform="matrix(0,4.16667,4.16667,0,2540.41,-2136.13)">
        <rect x="1057.99" y="450.88" width="7.199" height="2.01" style="fill:rgb(237,31,36);"/>
    </g>
    <g transform="matrix(0.00462963,4.16666,4.16666,-0.00462963,2217.17,-1815.35)">
        <rect x="981.501" y="451.429" width="7.2" height="0.912" style="fill:rgb(237,31,36);"/>
    </g>
    <g transform="matrix(4.16667,0,0,4.16667,0,404.3)">
        <rect x="931.369" y="448.284" width="1.408" height="7.2" style="fill:rgb(237,31,36);"/>
    </g>
    <g transform="matrix(4.16667,0,0,4.16667,0,404.308)">
        <rect x="886.103" y="448.283" width="0.553" height="7.2" style="fill:rgb(237,31,36);"/>
    </g>
    <g transform="matrix(0.00578703,4.16666,4.16666,-0.00578703,2806.25,-2405.86)">
        <rect x="1123.35" y="451.34" width="7.201" height="1.09" style="fill:rgb(237,31,36);"/>
    </g>
    <g transform="matrix(4.16667,0,0,4.16667,0,404.283)">
        <rect x="1175.09" y="448.286" width="0.98" height="7.2" style="fill:rgb(237,31,36);"/>
    </g>
    <g transform="matrix(0,4.16667,4.16667,0,2421.39,-2197.11)">
        <rect x="1051.02" y="471.777" width="7.198" height="3.42" style="fill:rgb(237,31,36);"/>
    </g>
    <g transform="matrix(4.16667,0,0,4.16667,0,224.3)">
        <rect x="962.495" y="469.884" width="0.98" height="7.2" style="fill:rgb(237,31,36);"/>
    </g>
    <g transform="matrix(0.00520833,4.16666,4.16666,-0.00520833,1920.18,-1698.28)">
        <rect x="931.896" y="473.089" width="7.2" height="0.789" style="fill:rgb(237,31,36);"/>
    </g>
    <g transform="matrix(4.16667,0,0,4.16667,0,224.308)">
        <rect x="915.863" y="469.883" width="0.553" height="7.2" style="fill:rgb(237,31,36);"/>
    </g>
    <g transform="matrix(0.00578703,4.16666,4.16666,-0.00578703,2815.9,-2595.53)">
        <rect x="1147.3" y="472.941" width="7.201" height="1.09" style="fill:rgb(237,31,36);"/>
    </g>
    <g transform="matrix(0.00578703,4.16666,4.16666,-0.00578703,2857.59,-2637.28)">
        <rect x="1157.32" y="473" width="7.2" height="0.97" style="fill:rgb(237,31,36);"/>
    </g>
    <g transform="matrix(0.00578703,4.16666,4.16666,-0.00578703,2182.95,-2141.69)">
        <rect x="1016.81" y="494.599" width="7.2" height="0.97" style="fill:rgb(237,31,36);"/>
    </g>
    <g transform="matrix(4.16667,0,0,4.16667,0,44.2917)">
        <rect x="1073.68" y="491.485" width="0.98" height="7.2" style="fill:rgb(237,31,36);"/>
    </g>
    <g transform="matrix(4.16667,0,0,4.16667,0,224.3)">
        <rect x="1011.95" y="469.884" width="0.553" height="7.2" style="fill:rgb(237,31,36);"/>
    </g>
    <g transform="matrix(4.16667,0,0,4.16667,0,224.3)">
        <rect x="1029.05" y="469.884" width="0.56" height="7.2" style="fill:rgb(237,31,36);"/>
    </g>
    <g transform="matrix(4.16667,0,0,4.16667,0,404.3)">
        <rect x="1033.94" y="448.284" width="0.55" height="7.2" style="fill:rgb(237,31,36);"/>
    </g>
    <g transform="matrix(0.00289352,4.16667,4.16667,-0.00289352,2049.57,-2006.7)">
        <rect x="984.068" y="494.291" width="7.2" height="1.587" style="fill:rgb(237,31,36);"/>
    </g>
    <g transform="matrix(4.16667,0,0,4.16667,0,44.3)">
        <rect x="926.392" y="491.484" width="1.348" height="7.2" style="fill:rgb(237,31,36);"/>
    </g>
    <g transform="matrix(4.16667,0,0,4.16667,0,44.3083)">
        <rect x="900.765" y="491.483" width="0.553" height="7.2" style="fill:rgb(237,31,36);"/>
    </g>
    <g transform="matrix(4.16667,0,0,4.16667,0,44.275)">
        <rect x="1121.79" y="491.487" width="0.8" height="7.2" style="fill:rgb(237,31,36);"/>
    </g>
    <g transform="matrix(0.00578703,4.16666,4.16666,-0.00578703,2787.92,-2747.51)">
        <rect x="1162.2" y="494.595" width="7.2" height="0.98" style="fill:rgb(237,31,36);"/>
    </g>
    <g transform="matrix(4.16667,0,0,4.16667,0,-2568.47)">
        <path d="M1126.12,784.188L1129,784.19L1128.96,826.535L1133.28,825.077L1127.52,833.046L1121.76,825.067L1126.08,826.533L1126.12,784.188Z" style="fill:rgb(8,6,5);"/>
    </g>
    <g transform="matrix(4.16667,0,0,4.16667,0,-2568.47)">
        <path d="M1126.12,784.188L1129,784.19L1128.96,826.535L1133.28,825.077L1127.52,833.046L1121.76,825.067L1126.08,826.533L1126.12,784.188Z" style="fill:rgb(8,6,5);"/>
    </g>
    <g transform="matrix(4.16667,0,0,4.16667,0,-943.004)">
        <path d="M1126.12,557.275L1129,557.277L1128.91,663.335L1133.23,661.876L1127.46,669.846L1121.71,661.866L1126.03,663.332L1126.12,557.275Z" style="fill:rgb(8,6,5);"/>
    </g>
    <g transform="matrix(4.16667,0,0,4.16667,0,869.975)">
        <path d="M1126.12,378L1129,378.003L1128.91,404.144L1133.23,401.934L1127.46,414.006L1121.71,401.919L1126.03,404.139L1126.12,378Z" style="fill:rgb(8,6,5);"/>
    </g>
    <g transform="matrix(4.16667,0,0,4.16667,0,-2116.74)">
        <path d="M156.011,758.16L152.266,750.657L148.511,758.154C150.387,756.281 154.137,756.283 156.011,758.16Z" style="fill:rgb(8,6,5);fill-rule:nonzero;"/>
    </g>
    <g transform="matrix(-0.00290751,4.16667,4.16667,0.00290751,-2194.82,704.34)">
        <path d="M79.124,679.074C107.321,679.073 225.298,679.074 225.298,679.074" style="fill:none;fill-rule:nonzero;stroke:rgb(8,6,5);stroke-width:2.5px;stroke-linecap:butt;stroke-dasharray:10.02,5,0,0,0,0;"/>
    </g>
    <g transform="matrix(4.16667,0,0,4.16667,0,-2818)">
        <path d="M781.92,842.4L776.506,834.72L771.12,842.4C773,840.53 780.05,840.521 781.92,842.4Z" style="fill:rgb(8,6,5);fill-rule:nonzero;"/>
    </g>
    <g transform="matrix(-0.0105992,4.16665,4.16665,0.0105992,-167.043,-2484.33)">
        <path d="M758.559,818.514C770.116,818.513 794.332,818.514 794.332,818.514" style="fill:none;fill-rule:nonzero;stroke:rgb(8,6,5);stroke-width:2.5px;stroke-linecap:butt;stroke-dasharray:10.02,5,0,0,0,0;"/>
    </g>
    <g transform="matrix(4.16667,0,0,4.16667,0,-883.696)">
        <path d="M1094.61,612.068L1102.08,606.407L1094.55,600.819L1094.61,612.068Z" style="fill:rgb(8,6,5);fill-rule:nonzero;"/>
    </g>
    <g transform="matrix(4.16667,0,0,4.16667,0,0)">
        <clipPath id="_clip1">
            <rect x="220.819" y="671.56" width="828.72" height="158.4"/>
        </clipPath>
        <g clip-path="url(#_clip1)">
            <g transform="matrix(1,0,0,1,0,521.6)">
                <path d="M220.819,213.827L221.647,213.658L222.475,212.862L225.794,205.756L226.629,205.106L227.457,204.6L228.285,204.664L229.941,207.679L230.776,209.599L233.26,214.754L234.088,215.62L235.752,216.122L236.58,217.119L239.071,220.004L239.899,219.989L243.218,217.79L244.046,217.557L244.874,217.656L245.702,218.519L249.856,224.985L250.684,225.586L251.512,225.441L252.34,224.536L254.832,219.622L255.66,218.961L256.488,218.671L257.316,218.78L260.635,220.046L261.47,219.82L263.126,219.551L263.954,219.558L265.617,219.311L266.445,219.063L269.764,218.752L270.592,218.483L273.084,217.352L273.912,216.627L277.231,213.134L278.059,211.922L280.543,208.878L281.378,208.273L283.034,207.867L283.862,208.128L284.697,208.825L285.525,210.101L287.181,214.803L288.009,218.102L290.5,227.976L291.328,229.945L292.164,231.002L292.992,231.027L293.82,229.91L294.648,227.647L297.139,219.516L297.967,218.186L299.623,216.977L300.458,216.747L303.777,216.249L304.605,216.284L307.924,216.281L308.752,216.09L312.072,215.68L312.9,215.793L314.556,216.175L315.391,216.564L317.875,217.603L318.703,217.631L321.194,217.546L322.022,217.398L333.636,217.568L334.464,217.649L345.249,217.631L346.077,217.518L351.06,217.059L351.888,217.083L355.207,217.196L356.035,217.087L357.698,217.009L358.526,217.055L361.01,216.892L361.845,216.659L363.501,216.783L364.329,216.914L370.14,217.225L370.968,217.299L373.459,217.497L374.287,217.412L378.434,217.433L379.262,217.175L380.925,216.68L381.753,216.631L384.237,216.603L385.072,216.567L389.22,216.702L390.048,216.574L392.539,216.32L393.367,216.397L395.851,216.864L396.686,217.101L399.17,217.409L399.998,217.356L401.661,217.08L402.489,217.218L404.98,217.592L405.808,217.624L413.275,218.285L414.103,218.254L416.594,217.995L417.422,217.921L419.913,218.087L420.741,217.971L423.232,217.599L424.06,217.518L427.38,217.391L428.208,217.585L430.692,218.102L431.527,218.201L438.993,218.197L439.821,218.271L442.305,218.335L443.14,218.476L448.116,218.331L448.944,218.278L450.607,218.102L451.435,217.773L455.582,216.652L456.41,216.588L458.073,216.702L458.901,216.896L461.385,217.345L462.22,217.285L466.368,216.896L467.196,217.009L467.219,266.233L462.22,266.356L458.901,266.122L458.073,266.006L455.582,265.977L454.754,266.101L450.607,266.847L449.772,266.949L443.14,267.07L442.305,266.985L434.011,266.843L433.183,266.875L429.036,266.695L428.208,266.536L424.888,266.455L424.06,266.497L413.275,266.957L412.447,266.995L403.317,266.426L402.489,266.317L399.998,266.398L399.17,266.43L395.851,266.105L395.023,265.96L391.704,265.779L390.876,265.846L382.581,266.009L381.753,265.963L379.262,266.292L378.434,266.444L369.312,266.303L368.476,266.257L363.501,266.055L362.673,265.945L361.01,266.119L360.182,266.189L353.544,266.306L352.716,266.285L350.232,266.303L349.396,266.394L327.832,266.423L327.004,266.486L322.85,266.419L322.022,266.423L318.703,266.564L317.875,266.546L314.556,265.691L313.728,265.549L309.58,265.549L308.752,265.638L306.261,265.797L305.433,265.776L302.114,265.836L301.286,265.931L298.795,266.423L297.967,266.896L293.82,273.932L292.992,274.6L292.164,274.586L291.328,273.949L289.672,271.1L288.844,269.042L286.353,263.241L285.525,262.046L283.862,260.862L283.034,260.706L281.378,260.95L280.543,261.314L278.059,263.138L277.231,263.867L273.912,265.963L273.084,266.394L268.929,267.377L268.101,267.423L264.782,267.703L263.954,267.72L261.47,267.876L260.635,268.01L258.151,267.452L257.316,267.254L255.66,267.363L254.832,267.759L253.168,269.658L252.34,270.708L251.512,271.248L250.684,271.337L247.365,268.731L246.537,267.946L244.874,266.578L244.046,266.518L239.899,267.978L239.071,267.985L236.58,266.257L235.752,265.659L234.088,265.359L233.26,264.835L230.776,261.745L229.941,260.593L228.285,258.783L227.457,258.744L226.629,259.048L225.794,259.437L222.475,263.701L221.647,264.178L220.819,264.28L220.819,213.827Z" style="fill:rgb(179,118,176);fill-opacity:0.4;fill-rule:nonzero;"/>
            </g>
            <g transform="matrix(1,0,0,1,0,575.744)">
                <path d="M220.819,210.136L221.647,210.034L222.475,209.557L225.794,205.293L226.629,204.904L227.457,204.6L228.285,204.639L229.941,206.449L230.776,207.601L233.26,210.691L234.088,211.215L235.752,211.515L236.58,212.113L239.071,213.841L239.899,213.834L244.046,212.374L244.874,212.434L246.537,213.802L247.365,214.587L250.684,217.193L251.512,217.104L252.34,216.564L253.168,215.514L254.832,213.615L255.66,213.219L257.316,213.11L258.151,213.308L260.635,213.866L261.47,213.732L263.954,213.576L264.782,213.559L268.101,213.279L268.929,213.233L273.084,212.25L273.912,211.819L277.231,209.723L278.059,208.994L280.543,207.17L281.378,206.806L283.034,206.562L283.862,206.718L285.525,207.902L286.353,209.097L288.844,214.898L289.672,216.956L291.328,219.805L292.164,220.442L292.992,220.456L293.82,219.788L297.967,212.752L298.795,212.279L301.286,211.787L302.114,211.692L305.433,211.632L306.261,211.653L308.752,211.494L309.58,211.405L313.728,211.405L314.556,211.547L317.875,212.402L318.703,212.42L322.022,212.279L322.85,212.275L327.004,212.342L327.832,212.279L349.396,212.25L350.232,212.159L352.716,212.141L353.544,212.162L360.182,212.045L361.01,211.975L362.673,211.801L363.501,211.911L368.476,212.113L369.312,212.159L378.434,212.3L379.262,212.148L381.753,211.819L382.581,211.865L390.876,211.702L391.704,211.635L395.023,211.816L395.851,211.961L399.17,212.286L399.998,212.254L402.489,212.173L403.317,212.282L412.447,212.851L413.275,212.813L424.06,212.353L424.888,212.311L428.208,212.392L429.036,212.551L433.183,212.731L434.011,212.699L442.305,212.841L443.14,212.926L449.772,212.805L450.607,212.703L454.754,211.957L455.582,211.833L458.073,211.862L458.901,211.978L462.22,212.212L463.048,212.155L467.219,212.089" style="fill:none;fill-rule:nonzero;stroke:rgb(129,127,127);stroke-width:2px;stroke-linecap:butt;stroke-linejoin:miter;stroke-miterlimit:2;"/>
            </g>
            <g transform="matrix(1,0,0,1,0,478.027)">
                <path d="M220.819,257.4L221.647,257.231L222.475,256.435L225.794,249.329L226.629,248.679L227.457,248.173L228.285,248.237L229.941,251.252L230.776,253.172L233.26,258.327L234.088,259.193L235.752,259.695L236.58,260.692L239.071,263.577L239.899,263.562L243.218,261.363L244.046,261.13L244.874,261.229L245.702,262.092L249.856,268.558L250.684,269.159L251.512,269.014L252.34,268.109L254.832,263.195L255.66,262.534L256.488,262.244L257.316,262.353L260.635,263.619L261.47,263.393L263.126,263.124L263.954,263.131L265.617,262.884L266.445,262.636L269.764,262.325L270.592,262.056L273.084,260.925L273.912,260.2L277.231,256.707L278.059,255.495L280.543,252.451L281.378,251.846L283.034,251.44L283.862,251.701L284.697,252.398L285.525,253.674L287.181,258.376L288.009,261.675L290.5,271.549L291.328,273.518L292.164,274.575L292.992,274.6L293.82,273.483L294.648,271.22L297.139,263.089L297.967,261.759L299.623,260.55L300.458,260.32L303.777,259.822L304.605,259.857L307.924,259.854L308.752,259.663L312.072,259.253L312.9,259.366L314.556,259.748L315.391,260.137L317.875,261.176L318.703,261.204L321.194,261.119L322.022,260.971L333.636,261.141L334.464,261.222L345.249,261.204L346.077,261.091L351.06,260.632L351.888,260.656L355.207,260.769L356.035,260.66L357.698,260.582L358.526,260.628L361.01,260.465L361.845,260.232L363.501,260.356L364.329,260.487L370.14,260.798L370.968,260.872L373.459,261.07L374.287,260.985L378.434,261.006L379.262,260.748L380.925,260.253L381.753,260.204L384.237,260.176L385.072,260.14L389.22,260.275L390.048,260.147L392.539,259.893L393.367,259.97L395.851,260.437L396.686,260.674L399.17,260.982L399.998,260.929L401.661,260.653L402.489,260.791L404.98,261.165L405.808,261.197L413.275,261.858L414.103,261.827L416.594,261.568L417.422,261.494L419.913,261.66L420.741,261.544L423.232,261.172L424.06,261.091L427.38,260.964L428.208,261.158L430.692,261.675L431.527,261.774L438.993,261.77L439.821,261.844L442.305,261.908L443.14,262.049L448.116,261.904L448.944,261.851L450.607,261.675L451.435,261.346L455.582,260.225L456.41,260.161L458.073,260.275L458.901,260.469L461.385,260.918L462.22,260.858L466.368,260.469L467.196,260.582" style="fill:none;fill-rule:nonzero;stroke:rgb(129,127,127);stroke-width:2px;stroke-linecap:butt;stroke-linejoin:miter;stroke-miterlimit:2;"/>
            </g>
            <g transform="matrix(1,0,0,1,0,526.886)">
                <path d="M220.819,233.77L221.647,233.632L222.475,232.995L225.794,227.31L226.629,226.791L227.457,226.388L228.285,226.437L229.941,228.852L230.776,230.386L233.26,234.508L234.088,235.201L235.752,235.604L236.58,236.403L239.071,238.708L239.899,238.698L243.218,236.937L244.046,236.753L244.874,236.831L245.702,237.521L249.856,242.693L250.684,243.174L251.512,243.06L252.34,242.336L254.832,238.404L255.66,237.874L256.488,237.641L257.316,237.733L260.635,238.744L261.47,238.563L263.954,238.355L264.782,238.327L267.273,237.913L268.101,237.955L269.764,237.708L270.592,237.492L273.084,236.587L273.912,236.007L277.231,233.215L278.059,232.246L280.543,229.81L281.378,229.326L283.034,229L283.862,229.209L284.697,229.764L285.525,230.786L287.181,234.547L288.009,237.188L290.5,245.086L291.328,246.663L292.164,247.508L292.992,247.526L293.82,246.635L294.648,244.825L297.139,238.32L297.967,237.255L299.623,236.29L300.458,236.103L303.777,235.703L304.605,235.735L307.924,235.732L308.752,235.58L312.072,235.251L312.9,235.339L315.391,235.958L316.219,236.322L317.875,236.789L318.703,236.813L321.194,236.743L322.022,236.626L334.464,236.824L335.299,236.838L346.077,236.722L346.912,236.633L361.01,236.22L361.845,236.032L363.501,236.131L364.329,236.237L370.968,236.545L371.796,236.63L376.771,236.771L377.606,236.739L380.09,236.209L380.925,236.05L386.728,236.043L387.556,236.071L390.048,235.965L390.876,235.855L393.367,235.827L394.195,235.884L399.17,236.633L399.998,236.591L401.661,236.372L402.489,236.481L405.808,236.806L406.636,236.87L410.784,237.224L411.612,237.358L414.931,237.298L415.766,237.234L418.25,237.11L419.078,237.167L420.741,237.082L421.569,236.92L425.716,236.619L426.544,236.584L428.208,236.775L429.036,236.987L432.355,237.262L433.183,237.227L438.158,237.188L438.993,237.262L445.624,237.489L446.46,237.528L450.607,237.188L451.435,236.923L455.582,236.029L456.41,235.979L458.901,236.223L459.729,236.372L462.22,236.534L467.219,236.396" style="fill:none;fill-rule:nonzero;stroke:rgb(8,6,5);stroke-width:2px;stroke-linecap:butt;stroke-linejoin:miter;stroke-miterlimit:2;"/>
            </g>
        </g>
    </g>
    <g transform="matrix(4.16667,0,0,4.16667,0,1511)">
        <rect x="369.419" y="294.96" width="96.48" height="48.24" style="fill:white;"/>
    </g>
    <g transform="matrix(4.16667,0,0,4.16667,0,1423)">
        <path d="M369.419,329.64L391.019,329.64" style="fill:none;fill-rule:nonzero;stroke:rgb(8,6,5);stroke-width:5px;stroke-linecap:butt;stroke-linejoin:miter;stroke-miterlimit:4;"/>
    </g>
    <g transform="matrix(4.16667,0,0,4.16667,0,1578.5)">
        <rect x="369.419" y="307.92" width="21.6" height="6.12" style="fill:rgb(179,118,176);fill-opacity:0.69;stroke:rgb(179,118,176);stroke-width:0.24px;stroke-linecap:butt;stroke-miterlimit:4;"/>
    </g>
    <g transform="matrix(4.16667,0,0,4.16667,0,1553)">
        <path d="M369.419,314.04L391.019,314.04" style="fill:none;fill-rule:nonzero;stroke:rgb(129,127,127);stroke-width:3.5px;stroke-linecap:butt;stroke-linejoin:miter;stroke-miterlimit:4;"/>
    </g>
    <g transform="matrix(4.16667,0,0,4.16667,0,1725)">
        <path d="M369.419,293.4L391.019,293.4" style="fill:none;fill-rule:nonzero;stroke:rgb(129,127,127);stroke-width:5px;stroke-linecap:butt;stroke-linejoin:miter;stroke-miterlimit:4;"/>
    </g>
    <g transform="matrix(4.16667,0,0,4.16667,0,2713.74)">
        <path d="M462.223,170.252L468.259,174.703L462.295,179.251L462.223,170.252Z" style="fill:rgb(8,6,5);fill-rule:nonzero;"/>
    </g>
    <g transform="matrix(4.16653,-0.0335961,-0.0335961,-4.16653,5.88465,4181.46)">
        <path d="M220.255,173.781C220.255,173.781 428.971,173.781 463.463,173.781" style="fill:none;fill-rule:nonzero;stroke:rgb(8,6,5);stroke-width:2px;stroke-linecap:butt;stroke-linejoin:miter;stroke-miterlimit:4;"/>
    </g>
    <g transform="matrix(4.16667,0,0,4.16667,0,1413.34)">
        <path d="M216.739,333.798L221.24,327.799L225.739,333.8L216.739,333.798Z" style="fill:rgb(8,6,5);fill-rule:nonzero;"/>
    </g>
    <g transform="matrix(0.000533504,-4.16667,-4.16667,-0.000533504,1967.09,4046.5)">
        <path d="M143.129,250.9C143.129,250.9 272.582,250.9 299.329,250.9" style="fill:none;fill-rule:nonzero;stroke:rgb(8,6,5);stroke-width:2px;stroke-linecap:butt;stroke-linejoin:miter;stroke-miterlimit:4;"/>
    </g>
    <g transform="matrix(4.16667,0,0,4.16667,0,0)">
        <g transform="matrix(17.133,0,0,17.133,1227.63,474.504)">
        </g>
        <text x="1028.63px" y="474.504px" style="font-family:'Arial-BoldMT', 'Arial', sans-serif;font-weight:700;font-size:17.133px;fill:rgb(35,31,32);">synthetic reads (F<tspan x="1174.33px 1186.7px " y="474.504px 474.504px ">AS</tspan>TQ)</text>
    </g>
    <g transform="matrix(4.16667,0,0,4.16667,0,0)">
        <g transform="matrix(17.133,0,0,17.133,1207.32,61.704)">
        </g>
        <text x="1028.63px" y="61.704px" style="font-family:'Arial-BoldMT', 'Arial', sans-serif;font-weight:700;font-size:17.133px;fill:rgb(35,31,32);">perfect reads (F<tspan x="1156.24px 1168.62px 1180.04px 1189.24px 1201.61px " y="61.704px 61.704px 61.704px 61.704px 61.704px ">ASTA)</tspan></text>
    </g>
    <g transform="matrix(4.16667,0,0,4.16667,0,0)">
        <g transform="matrix(17.133,0,0,17.133,502.562,575.793)">
        </g>
        <text x="354.96px" y="575.793px" style="font-family:'ArialMT', 'Arial', sans-serif;font-size:17.133px;fill:rgb(35,31,32);">Qscore/error model</text>
    </g>
    <g transform="matrix(4.16667,0,0,4.16667,0,0)">
        <g transform="matrix(17.133,0,0,17.133,577.146,526.353)">
        </g>
        <text x="356.16px" y="526.353px" style="font-family:'ArialMT', 'Arial', sans-serif;font-size:17.133px;fill:rgb(35,31,32);">sequence identity distribution</text>
    </g>
    <g transform="matrix(4.16667,0,0,4.16667,0,0)">
        <g transform="matrix(17.133,0,0,17.133,530.539,449.553)">
        </g>
        <text x="357.169px" y="449.553px" style="font-family:'ArialMT', 'Arial', sans-serif;font-size:17.133px;fill:rgb(35,31,32);">read length distribution</text>
    </g>
    <g transform="matrix(4.16667,0,0,4.16667,0,0)">
        <text x="167.936px" y="311.064px" style="font-family:'ArialMT', 'Arial', sans-serif;font-size:17.133px;fill:rgb(35,31,32);">preprocessing</text>
        <g transform="matrix(17.133,0,0,17.133,279.352,328.757)">
        </g>
        <text x="167.936px" y="328.757px" style="font-family:'ArialMT', 'Arial', sans-serif;font-size:17.133px;fill:rgb(35,31,32);">(user analysis)</text>
    </g>
    <g transform="matrix(4.16667,0,0,4.16667,0,0)">
        <g transform="matrix(17.133,0,0,17.133,1232.26,197.513)">
        </g>
        <g transform="matrix(17.133,0,0,17.133,1237.97,197.513)">
        </g>
        <g transform="matrix(17.133,0,0,17.133,1293.18,197.513)">
        </g>
        <text x="1146.58px" y="197.513px" style="font-family:'Arial-BoldMT', 'Arial', sans-serif;font-weight:700;font-size:17.133px;fill:rgb(35,31,32);">PCR amplication</text>
    </g>
    <g transform="matrix(4.16667,0,0,4.16667,0,0)">
        <text x="740.536px" y="228.504px" style="font-family:'Arial-BoldMT', 'Arial', sans-serif;font-weight:700;font-size:17.133px;fill:rgb(35,31,32);">reference</text>
        <g transform="matrix(17.133,0,0,17.133,836.241,245.637)">
        </g>
        <text x="721.985px" y="245.637px" style="font-family:'Arial-BoldMT', 'Arial', sans-serif;font-weight:700;font-size:17.133px;fill:rgb(35,31,32);">transcriptome</text>
    </g>
    <g transform="matrix(4.16667,0,0,4.16667,0,0)">
        <text x="570.275px" y="919.382px" style="font-family:'Arial-BoldMT', 'Arial', sans-serif;font-weight:700;font-size:16px;fill:rgb(35,31,32);">UMI</text>
        <text x="571.955px" y="943.142px" style="font-family:'Arial-BoldMT', 'Arial', sans-serif;font-weight:700;font-size:16px;fill:rgb(35,31,32);">Cell barcode</text>
        <g transform="matrix(16,0,0,16,669.546,970.142)">
        </g>
        <text x="571.757px" y="970.142px" style="font-family:'Arial-BoldMT', 'Arial', sans-serif;font-weight:700;font-size:16px;fill:rgb(35,31,32);">Adapter/TSO</text>
    </g>
    <g transform="matrix(4.16667,0,0,4.16667,0,0)">
        <text x="814.419px" y="919.506px" style="font-family:'Arial-BoldMT', 'Arial', sans-serif;font-weight:700;font-size:16px;fill:rgb(35,31,32);">Poly-dT</text>
        <text x="815.33px" y="942.426px" style="font-family:'Arial-BoldMT', 'Arial', sans-serif;font-weight:700;font-size:16px;fill:rgb(35,31,32);">cDNA</text>
        <g transform="matrix(16,0,0,16,956.697,966.426)">
        </g>
        <text x="815.33px" y="966.426px" style="font-family:'Arial-BoldMT', 'Arial', sans-serif;font-weight:700;font-size:16px;fill:rgb(35,31,32);">Sequencing errors</text>
    </g>
    <g transform="matrix(4.16667,0,0,4.16667,0,0)">
        <text x="95.225px" y="47.544px" style="font-family:'ArialMT', 'Arial', sans-serif;font-size:17.133px;fill:rgb(35,31,32);">real UMI count</text>
        <g transform="matrix(17.133,0,0,17.133,176.634,65.237)">
        </g>
        <text x="129.989px" y="65.237px" style="font-family:'ArialMT', 'Arial', sans-serif;font-size:17.133px;fill:rgb(35,31,32);">matrix</text>
    </g>
    <g transform="matrix(4.16667,0,0,4.16667,0,0)">
        <text x="470.105px" y="47.544px" style="font-family:'ArialMT', 'Arial', sans-serif;font-size:17.133px;fill:rgb(35,31,32);">synthetic UMI count</text>
        <g transform="matrix(17.133,0,0,17.133,571.035,65.237)">
        </g>
        <text x="524.39px" y="65.237px" style="font-family:'ArialMT', 'Arial', sans-serif;font-size:17.133px;fill:rgb(35,31,32);">matrix</text>
    </g>
    <g transform="matrix(4.16667,0,0,4.16667,0,0)">
        <g transform="matrix(17.133,0,0,17.133,1277.02,370.313)">
        </g>
        <text x="1146.58px" y="370.313px" style="font-family:'Arial-BoldMT', 'Arial', sans-serif;font-weight:700;font-size:17.133px;fill:rgb(35,31,32);">error simulation</text>
    </g>
    <g transform="matrix(4.16667,0,0,4.16667,0,0)">
        <text x="16.062px" y="748.824px" style="font-family:'Arial-BoldMT', 'Arial', sans-serif;font-weight:700;font-size:17.133px;fill:rgb(35,31,32);">Quality control</text>
        <text x="19.885px" y="765.957px" style="font-family:'Arial-BoldMT', 'Arial', sans-serif;font-weight:700;font-size:17.133px;fill:rgb(35,31,32);">report (HTML)</text>
        <g transform="matrix(17.133,0,0,17.133,116.872,790.58)">
        </g>
        <text x="36.307px" y="790.58px" style="font-family:'Arial-BoldMT', 'Arial', sans-serif;font-weight:700;font-size:17.133px;fill:rgb(35,31,32);">T<tspan x="45.5px 55.965px " y="790.58px 790.58px ">ou</tspan>lligQC</text>
    </g>
    <g transform="matrix(4.16667,0,0,4.16667,0,0)">
        <text x="660.68px" y="113.753px" style="font-family:'Arial-BoldMT', 'Arial', sans-serif;font-weight:700;font-size:17.133px;fill:rgb(35,31,32);">template generation</text>
        <g transform="matrix(17.133,0,0,17.133,411.389,116.153)">
        </g>
        <text x="271.477px" y="116.153px" style="font-family:'Arial-BoldMT', 'Arial', sans-serif;font-weight:700;font-size:17.133px;fill:rgb(35,31,32);">Count simulation</text>
    </g>
    <g transform="matrix(4.16667,0,0,4.16667,0,0)">
        <g transform="matrix(17.133,0,0,17.133,378.742,165.113)">
        </g>
        <text x="300.997px" y="165.113px" style="font-family:'Arial-BoldMT', 'Arial', sans-serif;font-weight:700;font-size:17.133px;fill:rgb(35,31,32);">SP<tspan x="322.579px 334.951px " y="165.113px 165.113px ">AR</tspan>Sim</text>
    </g>
    <g transform="matrix(4.16667,0,0,4.16667,0,0)">
        <g transform="matrix(17.133,0,0,17.133,1246.82,389.513)">
        </g>
        <text x="1178.26px" y="389.513px" style="font-family:'Arial-BoldMT', 'Arial', sans-serif;font-weight:700;font-size:17.133px;fill:rgb(35,31,32);">Badread</text>
    </g>
    <g transform="matrix(4.16667,0,0,4.16667,0,0)">
        <g transform="matrix(17.133,0,0,17.133,223.128,434.904)">
        </g>
        <text x="74.585px" y="434.904px" style="font-family:'ArialMT', 'Arial', sans-serif;font-size:17.133px;fill:rgb(35,31,32);">real reads (F<tspan x="170.771px 182.2px " y="434.904px 434.904px ">AS</tspan>TQ)</text>
    </g>
    <g transform="matrix(4.16667,0,0,4.16667,0,0)">
        <g transform="matrix(18,0,0,18,424.361,852.414)">
        </g>
        <text x="263.251px" y="852.414px" style="font-family:'ArialMT', 'Arial', sans-serif;font-size:18px;fill:rgb(35,31,32);">Position in read (bp)</text>
    </g>
    <g transform="matrix(-0.00273333,-4.16667,4.16667,-0.00273333,0,0)">
        <g transform="matrix(18,0,0,18,-721.962,203.712)">
        </g>
        <text x="-779.986px" y="203.712px" style="font-family:'ArialMT', 'Arial', sans-serif;font-size:18px;fill:rgb(35,31,32);">Qscore</text>
    </g>
    <g transform="matrix(4.16667,0,0,4.16667,0,0)">
        <text x="398.219px" y="675.962px" style="font-family:'ArialMT', 'Arial', sans-serif;font-size:15px;fill:rgb(44,63,95);">Mean</text>
        <text x="398.219px" y="694.002px" style="font-family:'ArialMT', 'Arial', sans-serif;font-size:15px;fill:rgb(44,63,95);">Uper percentile</text>
        <g transform="matrix(15,0,0,15,508.227,712.042)">
        </g>
        <text x="398.219px" y="712.042px" style="font-family:'ArialMT', 'Arial', sans-serif;font-size:15px;fill:rgb(44,63,95);">Lower percentile</text>
    </g>
    <g transform="matrix(-0.00273333,-4.16667,4.16667,-0.00273333,0,0)">
        <g transform="matrix(18,0,0,18,-709.041,583.365)">
        </g>
        <text x="-783.072px" y="583.365px" style="font-family:'ArialMT', 'Arial', sans-serif;font-size:18px;fill:rgb(35,31,32);">Base (%)</text>
    </g>
    <g transform="matrix(-0.00273333,-4.16667,4.16667,-0.00273333,0,0)">
        <g transform="matrix(18,0,0,18,-706.522,945.766)">
        </g>
        <text x="-792.584px" y="945.766px" style="font-family:'ArialMT', 'Arial', sans-serif;font-size:18px;fill:rgb(35,31,32);">Frequence</text>
    </g>
    <g transform="matrix(4.16667,0,0,4.16667,0,0)">
        <g transform="matrix(18,0,0,18,813.881,852.414)">
        </g>
        <text x="652.771px" y="852.414px" style="font-family:'ArialMT', 'Arial', sans-serif;font-size:18px;fill:rgb(35,31,32);">Position in read (bp)</text>
    </g>
    <g transform="matrix(4.16667,0,0,4.16667,0,0)">
        <g transform="matrix(18,0,0,18,1206.34,853.134)">
        </g>
        <text x="1012.23px" y="853.134px" style="font-family:'ArialMT', 'Arial', sans-serif;font-size:18px;fill:rgb(35,31,32);">Mean GC contenent (%)</text>
    </g>
    <g transform="matrix(4.16667,0,0,4.16667,0,0)">
        <text x="1180.49px" y="670.801px" style="font-family:'ArialMT', 'Arial', sans-serif;font-size:15px;fill:rgb(35,31,32);">Simulated data</text>
        <g transform="matrix(15,0,0,15,1335.59,693.601)">
        </g>
        <text x="1180.49px" y="693.601px" style="font-family:'ArialMT', 'Arial', sans-serif;font-size:15px;fill:rgb(35,31,32);">Theoretical <tspan x="1263.04px " y="693.601px ">d</tspan>istribution</text>
    </g>
    <g transform="matrix(4.16667,0,0,4.16667,0,0)">
        <g transform="matrix(15,0,0,15,199.203,210.599)">
        </g>
        <text x="107.479px" y="210.599px" style="font-family:'ArialMT', 'Arial', sans-serif;font-size:15px;fill:rgb(35,31,32);">Cell barcodes</text>
    </g>
    <g transform="matrix(4.16667,0,0,4.16667,0,0)">
        <g transform="matrix(15,0,0,15,592.323,210.599)">
        </g>
        <text x="500.599px" y="210.599px" style="font-family:'ArialMT', 'Arial', sans-serif;font-size:15px;fill:rgb(35,31,32);">Cell barcodes</text>
    </g>
    <g transform="matrix(4.16667,0,0,4.16667,0,0)">
        <g transform="matrix(15,0,0,15,937.398,101.608)">
        </g>
        <text x="886.519px" y="101.608px" style="font-family:'ArialMT', 'Arial', sans-serif;font-size:15px;fill:rgb(35,31,32);">adapter</text>
    </g>
    <g transform="matrix(4.16667,0,0,4.16667,0,0)">
        <g transform="matrix(15,0,0,15,1093.38,101.608)">
        </g>
        <text x="965.719px" y="101.608px" style="font-family:'ArialMT', 'Arial', sans-serif;font-size:15px;fill:rgb(35,31,32);">CB <tspan x="1008.92px " y="101.608px ">U</tspan>MI <tspan x="1042.52px " y="101.608px ">p</tspan>olyT/A</text>
    </g>
    <g transform="matrix(4.16667,0,0,4.16667,0,0)">
        <g transform="matrix(15,0,0,15,1225.69,101.608)">
        </g>
        <text x="1186.52px" y="101.608px" style="font-family:'ArialMT', 'Arial', sans-serif;font-size:15px;fill:rgb(35,31,32);">cDNA</text>
    </g>
    <g transform="matrix(4.16667,0,0,4.16667,0,0)">
        <g transform="matrix(15,0,0,15,1373.35,101.608)">
        </g>
        <text x="1342.52px" y="101.608px" style="font-family:'ArialMT', 'Arial', sans-serif;font-size:15px;fill:rgb(35,31,32);">TSO</text>
    </g>
    <g transform="matrix(-0.00114167,-4.16667,4.16667,-0.00114167,0,0)">
        <g transform="matrix(15,0,0,15,-118.666,91.2449)">
        </g>
        <text x="-162.863px" y="91.245px" style="font-family:'ArialMT', 'Arial', sans-serif;font-size:15px;fill:rgb(35,31,32);">Genes</text>
    </g>
    <g transform="matrix(-0.00114167,-4.16667,4.16667,-0.00114167,0,0)">
        <g transform="matrix(15,0,0,15,-117.814,484.846)">
        </g>
        <text x="-162.011px" y="484.846px" style="font-family:'ArialMT', 'Arial', sans-serif;font-size:15px;fill:rgb(35,31,32);">Genes</text>
    </g>
    <g transform="matrix(-0.182448,-4.16267,-4.16267,0.182448,5342.44,4892.53)">
        <path d="M787.26,151.779C792.929,298.071 788.22,233.606 794.958,408.969C796.045,437.254 794.248,469.484 787.26,485.459C753.059,563.641 656.051,597.826 656.078,649.521C656.108,705.013 653.47,732.515 665.216,901.843" style="fill:none;fill-rule:nonzero;stroke:rgb(8,6,5);stroke-width:2.5px;stroke-linecap:butt;stroke-miterlimit:4;stroke-dasharray:10.02,5,0,0,0,0;"/>
    </g>
    <g transform="matrix(4.16667,0,0,4.16667,0,-2826.52)">
        <path d="M691.479,843.36L687.84,835.806L683.98,843.25C685.882,841.403 689.632,841.458 691.479,843.36Z" style="fill:rgb(8,6,5);fill-rule:nonzero;"/>
    </g>
    <g transform="matrix(4.16667,0,0,4.16667,0,-1487.76)">
        <path d="M687.752,520.501C687.505,546.895 689.141,566.535 686.88,597.062C683.52,642.422 676.8,727.622 612.72,793.862C570.64,837.361 411.12,830.102 355.68,831.062" style="fill:none;fill-rule:nonzero;stroke:rgb(8,6,5);stroke-width:2.5px;stroke-linecap:butt;stroke-miterlimit:4;stroke-dasharray:10.02,5,0,0,0,0;"/>
    </g>
    <g transform="matrix(4.16667,0,0,4.16667,0,-3044.42)">
        <path d="M664.083,867.234L664.08,864.354L811.67,864.288L809.452,859.97L821.52,865.723L809.466,871.49L811.673,867.168L664.083,867.234Z" style="fill:rgb(8,6,5);"/>
    </g>
    <g transform="matrix(4.16667,0,0,4.16667,0,-3044.42)">
        <path d="M297.208,867.234L297.206,864.354L378.922,864.288L377.456,859.97L385.435,865.723L377.465,871.49L378.924,867.168L297.208,867.234Z" style="fill:rgb(8,6,5);"/>
    </g>
    <g transform="matrix(4.16667,0,0,4.16667,0,-287.008)">
        <rect x="156.558" y="532.082" width="127.529" height="5.518" style="fill:rgb(68,66,66);"/>
    </g>
    <g transform="matrix(4.16667,0,0,4.16667,0,-287.008)">
        <rect x="34.781" y="532.082" width="37.072" height="5.518" style="fill:rgb(68,66,66);"/>
    </g>
    <g transform="matrix(4.16667,0,0,4.16667,0,-287.008)">
        <rect x="71.512" y="532.082" width="34.564" height="5.518" style="fill:rgb(68,66,66);"/>
    </g>
    <g transform="matrix(4.16667,0,0,4.16667,0,-287.008)">
        <rect x="105.962" y="532.082" width="20.124" height="5.518" style="fill:rgb(68,66,66);"/>
    </g>
    <g transform="matrix(4.16667,0,0,4.16667,0,-287.008)">
        <rect x="125.632" y="532.082" width="31.153" height="5.518" style="fill:rgb(68,66,66);"/>
    </g>
    <g transform="matrix(4.16667,0,0,4.16667,0,-287.008)">
        <rect x="283.651" y="532.082" width="31.949" height="5.518" style="fill:rgb(68,66,66);"/>
    </g>
    <g transform="matrix(4.16667,0,0,4.16667,0,-149.225)">
        <rect x="156.558" y="515.548" width="127.529" height="5.518" style="fill:rgb(68,66,66);"/>
    </g>
    <g transform="matrix(4.16667,0,0,4.16667,0,-149.225)">
        <rect x="32.4" y="515.548" width="39.453" height="5.518" style="fill:rgb(68,66,66);"/>
    </g>
    <g transform="matrix(4.16667,0,0,4.16667,0,-149.225)">
        <rect x="71.512" y="515.548" width="34.564" height="5.518" style="fill:rgb(68,66,66);"/>
    </g>
    <g transform="matrix(4.16667,0,0,4.16667,0,-149.225)">
        <rect x="105.962" y="515.548" width="20.124" height="5.518" style="fill:rgb(68,66,66);"/>
    </g>
    <g transform="matrix(4.16667,0,0,4.16667,0,-149.225)">
        <rect x="125.632" y="515.548" width="31.153" height="5.518" style="fill:rgb(68,66,66);"/>
    </g>
    <g transform="matrix(4.16667,0,0,4.16667,0,-149.225)">
        <rect x="283.651" y="515.548" width="22.145" height="5.518" style="fill:rgb(68,66,66);"/>
    </g>
    <g transform="matrix(4.16667,0,0,4.16667,0,-11.4416)">
        <rect x="156.558" y="499.014" width="99.657" height="5.518" style="fill:rgb(68,66,66);"/>
    </g>
    <g transform="matrix(4.16667,0,0,4.16667,0,-11.4416)">
        <rect x="34.501" y="499.014" width="37.352" height="5.518" style="fill:rgb(68,66,66);"/>
    </g>
    <g transform="matrix(4.16667,0,0,4.16667,0,-11.4416)">
        <rect x="71.512" y="499.014" width="34.564" height="5.518" style="fill:rgb(68,66,66);"/>
    </g>
    <g transform="matrix(4.16667,0,0,4.16667,0,-11.4416)">
        <rect x="105.962" y="499.014" width="20.124" height="5.518" style="fill:rgb(68,66,66);"/>
    </g>
    <g transform="matrix(4.16667,0,0,4.16667,0,-11.4416)">
        <rect x="125.632" y="499.014" width="31.153" height="5.518" style="fill:rgb(68,66,66);"/>
    </g>
    <g transform="matrix(4.16667,0,0,4.16667,0,-11.4416)">
        <rect x="255.639" y="499.014" width="22.145" height="5.518" style="fill:rgb(68,66,66);"/>
    </g>
    <g transform="matrix(4.16667,0,0,4.16667,0,126.342)">
        <rect x="156.558" y="482.48" width="99.517" height="5.518" style="fill:rgb(68,66,66);"/>
    </g>
    <g transform="matrix(4.16667,0,0,4.16667,0,126.342)">
        <rect x="34.921" y="482.48" width="36.932" height="5.518" style="fill:rgb(68,66,66);"/>
    </g>
    <g transform="matrix(4.16667,0,0,4.16667,0,126.342)">
        <rect x="71.512" y="482.48" width="34.564" height="5.518" style="fill:rgb(68,66,66);"/>
    </g>
    <g transform="matrix(4.16667,0,0,4.16667,0,126.342)">
        <rect x="105.962" y="482.48" width="20.124" height="5.518" style="fill:rgb(68,66,66);"/>
    </g>
    <g transform="matrix(4.16667,0,0,4.16667,0,126.342)">
        <rect x="125.632" y="482.48" width="31.153" height="5.518" style="fill:rgb(68,66,66);"/>
    </g>
    <g transform="matrix(4.16667,0,0,4.16667,0,126.342)">
        <rect x="255.639" y="482.48" width="28.448" height="5.518" style="fill:rgb(68,66,66);"/>
    </g>
    <g transform="matrix(4.16667,0,0,4.16667,0,279.442)">
        <rect x="156.558" y="464.108" width="127.529" height="5.518" style="fill:rgb(68,66,66);"/>
    </g>
    <g transform="matrix(4.16667,0,0,4.16667,0,279.442)">
        <rect x="32.4" y="464.108" width="39.453" height="5.518" style="fill:rgb(68,66,66);"/>
    </g>
    <g transform="matrix(4.16667,0,0,4.16667,0,279.442)">
        <rect x="71.512" y="464.108" width="34.564" height="5.518" style="fill:rgb(68,66,66);"/>
    </g>
    <g transform="matrix(4.16667,0,0,4.16667,0,279.442)">
        <rect x="105.962" y="464.108" width="20.124" height="5.518" style="fill:rgb(68,66,66);"/>
    </g>
    <g transform="matrix(4.16667,0,0,4.16667,0,279.442)">
        <rect x="125.632" y="464.108" width="31.153" height="5.518" style="fill:rgb(68,66,66);"/>
    </g>
    <g transform="matrix(4.16667,0,0,4.16667,0,279.442)">
        <rect x="283.651" y="464.108" width="22.145" height="5.518" style="fill:rgb(68,66,66);"/>
    </g>
    <g transform="matrix(4.16667,0,0,4.16667,0,417.225)">
        <rect x="156.558" y="447.574" width="99.657" height="5.518" style="fill:rgb(68,66,66);"/>
    </g>
    <g transform="matrix(4.16667,0,0,4.16667,0,417.225)">
        <rect x="34.501" y="447.574" width="37.352" height="5.518" style="fill:rgb(68,66,66);"/>
    </g>
    <g transform="matrix(4.16667,0,0,4.16667,0,417.225)">
        <rect x="71.512" y="447.574" width="34.564" height="5.518" style="fill:rgb(68,66,66);"/>
    </g>
    <g transform="matrix(4.16667,0,0,4.16667,0,417.225)">
        <rect x="105.962" y="447.574" width="20.124" height="5.518" style="fill:rgb(68,66,66);"/>
    </g>
    <g transform="matrix(4.16667,0,0,4.16667,0,417.225)">
        <rect x="125.632" y="447.574" width="31.153" height="5.518" style="fill:rgb(68,66,66);"/>
    </g>
    <g transform="matrix(4.16667,0,0,4.16667,0,417.225)">
        <rect x="255.639" y="447.574" width="22.145" height="5.518" style="fill:rgb(68,66,66);"/>
    </g>
    <g transform="matrix(4.16667,0,0,4.16667,0,555.008)">
        <rect x="156.558" y="431.04" width="99.517" height="5.518" style="fill:rgb(68,66,66);"/>
    </g>
    <g transform="matrix(4.16667,0,0,4.16667,0,555.008)">
        <rect x="34.921" y="431.04" width="36.932" height="5.518" style="fill:rgb(68,66,66);"/>
    </g>
    <g transform="matrix(4.16667,0,0,4.16667,0,555.008)">
        <rect x="71.512" y="431.04" width="34.564" height="5.518" style="fill:rgb(68,66,66);"/>
    </g>
    <g transform="matrix(4.16667,0,0,4.16667,0,555.008)">
        <rect x="105.962" y="431.04" width="20.124" height="5.518" style="fill:rgb(68,66,66);"/>
    </g>
    <g transform="matrix(4.16667,0,0,4.16667,0,555.008)">
        <rect x="125.632" y="431.04" width="31.153" height="5.518" style="fill:rgb(68,66,66);"/>
    </g>
    <g transform="matrix(4.16667,0,0,4.16667,0,555.008)">
        <rect x="255.639" y="431.04" width="28.448" height="5.518" style="fill:rgb(68,66,66);"/>
    </g>
    <g transform="matrix(4.16667,0,0,4.16667,0,2731.25)">
        <path d="M605.097,173.873L605.097,171.427L860.586,171.427L860.586,167.759L867.36,172.65L860.586,177.541L860.586,173.873L605.097,173.873Z" style="fill:rgb(68,66,66);"/>
    </g>
    <g transform="matrix(4.16667,0,0,4.16667,0,2022.61)">
        <path d="M606.074,343.919L603.565,343.919L603.61,176.471L599.846,176.47L604.866,171.454L609.882,176.473L606.119,176.472L606.074,343.919Z" style="fill:rgb(68,66,66);"/>
    </g>
    <g transform="matrix(4.16667,0,0,4.16667,0,2022.61)">
        <path d="M966.074,343.919L963.565,343.919L963.61,176.471L959.846,176.47L964.866,171.454L969.882,176.473L966.119,176.472L966.074,343.919Z" style="fill:rgb(68,66,66);"/>
    </g>
    <g transform="matrix(-4.16667,0,0,4.16667,2846,-3470)">
        <circle cx="341.52" cy="916.8" r="10.56" style="fill:none;stroke:rgb(8,6,5);stroke-width:1.5px;stroke-miterlimit:4;stroke-dasharray:6.01,0.08,0,0,0,0;"/>
    </g>
    <g transform="matrix(-4.16667,0,0,4.16667,6193,-3517)">
        <circle cx="743.16" cy="922.44" r="10.68" style="fill:none;stroke:rgb(8,6,5);stroke-width:1.5px;stroke-miterlimit:4;stroke-dasharray:6.01,0.08,0,0,0,0;"/>
    </g>
    <g transform="matrix(-4.16667,0,0,4.16667,10977,-2579)">
        <circle cx="1317.24" cy="809.88" r="10.68" style="fill:none;stroke:rgb(8,6,5);stroke-width:1.5px;stroke-miterlimit:4;stroke-dasharray:6.01,0.08,0,0,0,0;"/>
    </g>
    <g transform="matrix(-4.16667,0,0,4.16667,10830,-1136)">
        <circle cx="1299.6" cy="636.72" r="10.56" style="fill:none;stroke:rgb(8,6,5);stroke-width:1.5px;stroke-miterlimit:4;stroke-dasharray:6.01,0.08,0,0,0,0;"/>
    </g>
    <g transform="matrix(-4.16667,0,0,4.16667,636.532,1804)">
        <circle cx="76.384" cy="283.92" r="10.56" style="fill:none;stroke:rgb(8,6,5);stroke-width:1.5px;stroke-miterlimit:4;stroke-dasharray:6.01,0.08,0,0,0,0;"/>
    </g>
    <g transform="matrix(4.16667,0,0,4.16667,0,2138)">
        <path d="M1351.92,138.76L1351.92,348.92C1351.92,357.949 1343.49,365.28 1333.09,365.28L177.705,365.28C167.316,365.28 158.88,357.949 158.88,348.92L158.88,138.76C158.88,129.731 167.316,122.4 177.705,122.4L1333.09,122.4C1343.49,122.4 1351.92,129.731 1351.92,138.76Z" style="fill:none;fill-rule:nonzero;stroke:rgb(8,6,5);stroke-width:0.9px;stroke-miterlimit:4;stroke-dasharray:3.61,0.05,0,0,0,0;"/>
    </g>
    <g transform="matrix(4.16667,0,0,4.16667,0,0)">
        <clipPath id="_clip2">
            <rect x="966.205" y="657.04" width="270.814" height="179.2"/>
        </clipPath>
        <g clip-path="url(#_clip2)">
            <g transform="matrix(1,0,0,1,0,492.48)">
                <path d="M966.939,334.026L971.412,332.992L972.644,332.218L977.117,331.697L981.59,331.957L995.008,331.957L1003.95,333.505L1008.43,333.252L1012.9,333.766L1017.37,333.505L1026.32,332.992L1030.79,333.505L1039.74,332.992L1044.21,333.252L1053.15,333.252L1057.63,330.662L1062.1,323.429L1066.57,312.058L1071.05,293.967L1075.52,268.895L1079.99,233.739L1084.46,208.928L1088.94,186.186L1093.41,173.52L1097.88,177.91L1102.36,205.825L1106.83,234L1111.3,265.27L1115.77,294.48L1120.25,313.866L1124.72,323.429L1129.19,327.306L1133.67,330.41L1138.14,331.957L1142.61,333.505L1147.08,334.026L1151.56,334.539L1156.03,334.287L1169.45,334.026L1173.92,334.026L1196.28,334.8L1200.76,334.539L1236.72,333.985" style="fill:none;fill-rule:nonzero;stroke:rgb(179,118,176);stroke-width:3px;stroke-linecap:butt;stroke-linejoin:miter;stroke-miterlimit:2;"/>
            </g>
            <g transform="matrix(1,0,0,1,0,576.924)">
                <path d="M966.892,249.541L1003.95,249.444L1012.9,248.246L1017.37,247.244L1026.32,244.035L1030.79,241.64L1035.26,238.602L1039.74,234.847L1044.21,230.343L1048.68,225.097L1057.63,212.708L1062.1,205.89L1071.05,192.311L1075.52,186.202L1079.99,181.006L1084.46,177.031L1088.94,174.522L1093.41,173.65L1097.88,174.465L1102.36,176.908L1106.83,180.835L1111.3,185.991L1120.25,198.73L1124.72,205.637L1133.67,218.947L1138.14,224.893L1142.61,230.172L1147.08,234.7L1151.56,238.48L1156.03,241.543L1164.98,245.819L1169.45,247.204L1178.39,248.931L1182.87,249.436L1200.76,250.226L1236.72,249.541" style="fill:none;fill-rule:nonzero;stroke:rgb(250,163,58);stroke-width:3px;stroke-linecap:butt;stroke-linejoin:miter;stroke-miterlimit:2;"/>
            </g>
        </g>
    </g>
    <g transform="matrix(4.16667,0,0,4.16667,0,2731.25)">
        <path d="M965.097,173.873L965.097,171.427L1250.28,171.427L1250.28,167.759L1257.84,172.65L1250.28,177.541L1250.28,173.873L965.097,173.873Z" style="fill:rgb(68,66,66);"/>
    </g>
    <g transform="matrix(4.16667,0,0,4.16667,0,0)">
        <g transform="matrix(19.2877,0,0,19.2877,345.952,91.064)">
        </g>
        <text x="335.225px" y="91.064px" style="font-family:'ArialMT', 'Arial', sans-serif;font-size:19.288px;fill:rgb(35,31,32);">1</text>
    </g>
    <g transform="matrix(4.16667,0,0,4.16667,0,0)">
        <g transform="matrix(19.5068,0,0,19.5068,748.813,85.212)">
        </g>
        <text x="737.964px" y="85.212px" style="font-family:'ArialMT', 'Arial', sans-serif;font-size:19.507px;fill:rgb(35,31,32);">2</text>
    </g>
    <g transform="matrix(4.16667,0,0,4.16667,0,0)">
        <g transform="matrix(19.5068,0,0,19.5068,1322.89,197.772)">
        </g>
        <text x="1312.04px" y="197.772px" style="font-family:'ArialMT', 'Arial', sans-serif;font-size:19.507px;fill:rgb(35,31,32);">3</text>
    </g>
    <g transform="matrix(4.16667,0,0,4.16667,0,0)">
        <g transform="matrix(19.2877,0,0,19.2877,1305.19,370.855)">
        </g>
        <text x="1294.46px" y="370.855px" style="font-family:'ArialMT', 'Arial', sans-serif;font-size:19.288px;fill:rgb(35,31,32);">4</text>
    </g>
    <g transform="matrix(4.16667,0,0,4.16667,0,0)">
        <g transform="matrix(19.2877,0,0,19.2877,81.9727,723.655)">
        </g>
        <text x="71.246px" y="723.655px" style="font-family:'ArialMT', 'Arial', sans-serif;font-size:19.288px;fill:rgb(35,31,32);">5</text>
    </g>
    <g transform="matrix(4.16667,0,0,4.16667,0,0)">
        <clipPath id="_clip3">
            <rect x="606.48" y="661.92" width="816.48" height="158.4"/>
        </clipPath>
        <g clip-path="url(#_clip3)">
            <g transform="matrix(1,0,0,1,0,508.838)">
                <path d="M606.48,297.598L608.114,268.546L608.935,274.824L609.749,266.019L610.57,230.933L611.383,198.461L612.204,189.432L614.652,296.806L615.473,302.53L616.286,300.514L617.107,291.06L619.555,222.394L620.376,251.475L621.19,267.963L622.01,262.239L622.824,260.194L623.645,262.851L624.458,271.124L625.279,272.038L626.093,265.709L626.914,263.88L628.548,251.144L629.362,260.172L630.996,275.933L631.817,275.408L632.63,271.728L633.451,264.809L635.086,250.697L635.899,258.912L636.72,267.898L637.541,269.504L640.81,254.549L641.623,253.98L645.713,252.972L646.526,252.749L649.795,252.886L650.616,252.987L657.967,255.032L658.788,256.14L660.422,261.684L661.236,266.638L662.87,275.271L663.691,276.725L665.326,277.337L666.139,277.344L668.594,277.107L669.415,276.711L671.05,274.508L671.863,272.319L675.953,257.163L676.766,256.767L685.759,258.732L686.573,259.114L689.028,259.359L689.842,259.193L697.2,257.696L698.021,257.595L702.103,257.408L702.924,257.451L724.171,256.968L724.985,256.896L740.515,256.968L741.336,256.997L756.046,257.048L756.859,257.033L771.576,257.17L850.63,257.17" style="fill:none;fill-rule:nonzero;stroke:rgb(237,30,36);stroke-width:3px;stroke-linecap:butt;stroke-linejoin:miter;stroke-miterlimit:2;"/>
            </g>
            <g transform="matrix(1,0,0,1,0,472.627)">
                <path d="M606.48,197.213L608.114,273.555L608.935,249.759L609.749,228.569L610.57,260.155L612.204,330.96L613.018,325.704L614.652,272.143L615.473,284.65L616.286,280.294L617.107,254.187L617.921,266.139L618.742,303.665L619.555,322.126L620.376,312.859L622.824,263.734L623.645,270.171L624.458,272.705L625.279,271.215L626.914,267.384L627.727,285.687L629.362,318.274L630.182,321.039L630.996,321.586L631.817,321.233L632.63,319.707L633.451,316.092L635.899,295.659L636.72,303.507L637.541,310.908L638.354,310.123L639.989,301.685L640.81,300.303L642.444,299.734L643.258,299.64L647.347,298.387L648.161,298.495L653.885,299.431L654.698,299.431L657.154,299.611L657.967,300.151L658.788,301.282L659.602,303.363L661.236,311.873L662.057,317.107L663.691,322.277L664.505,322.745L666.96,322.5L667.781,322.227L669.415,321.139L670.229,320.059L671.863,315.768L672.684,312.226L675.132,300.151L675.953,298.287L677.587,296.976L678.401,296.53L680.856,295.392L681.67,295.601L686.573,297.847L687.394,297.941L690.662,297.365L691.476,297.091L698.021,296.155L698.834,296.083L710.275,295.63L711.096,295.659L805.085,295.529L805.898,295.464L815.705,295.306L816.526,295.335L826.332,295.421L827.153,295.428L842.676,295.536L850.457,295.536" style="fill:none;fill-rule:nonzero;stroke:rgb(13,129,64);stroke-width:3px;stroke-linecap:butt;stroke-linejoin:miter;stroke-miterlimit:2;"/>
            </g>
            <g transform="matrix(1,0,0,1,0,513.034)">
                <path d="M606.48,295.867L608.114,265.62L608.935,278.803L609.749,290.359L610.57,278.443L611.383,265.332L612.204,272.668L613.018,269.99L613.838,249.7L615.473,206.522L616.286,226.977L617.921,293.786L618.742,299.366L619.555,298.2L620.376,291.684L622.01,268.5L622.824,273.439L623.645,273.72L624.458,270.148L626.093,291.669L626.914,291.237L628.548,267.967L629.362,251.112L630.996,230.044L631.817,226.516L632.63,235.322L633.451,255.482L634.265,267.578L635.086,265.346L636.72,242.119L637.541,238.742L638.354,239.728L639.175,246.252L640.81,257.001L641.623,258.081L644.892,258.902L645.713,259.413L647.347,259.903L648.161,259.845L650.616,259.01L651.43,258.693L656.333,257.505L657.154,256.778L657.967,255.172L658.788,251.853L660.422,235.113L661.236,220.324L662.87,194.469L663.691,190.005L664.505,188.659L665.326,188.4L667.781,189.033L668.594,189.847L669.415,191.409L670.229,194.217L671.863,205.939L672.684,215.781L675.132,247.605L675.953,251.817L677.587,253.927L678.401,254.229L680.856,255.057L681.67,254.834L684.125,252.753L684.938,251.868L687.394,249.751L688.207,249.564L689.842,250.039L690.662,250.672L694.745,253.732L695.566,254.114L701.29,255.799L702.103,255.943L707.827,256.569L708.641,256.555L720.902,256.634L721.716,256.728L733.978,256.879L734.798,256.85L738.881,256.771L739.702,256.8L762.583,256.85L763.404,256.879L769.121,256.67L769.942,256.627L850.034,256.346L850.855,256.288" style="fill:none;fill-rule:nonzero;stroke:rgb(58,83,164);stroke-width:3px;stroke-linecap:butt;stroke-linejoin:miter;stroke-miterlimit:2;"/>
            </g>
            <g transform="matrix(1,0,0,1,0,528.053)">
                <path d="M606.48,258.477L607.301,243.667L608.114,241.428L608.935,245.769L609.749,264.209L610.57,279.617L611.383,276.852L613.018,230.714L613.838,232.205L614.652,253.661L615.473,255.453L617.107,234.019L617.921,222.47L619.555,206.429L620.376,193.13L621.19,211.145L622.01,244.121L622.824,251.781L623.645,242.407L626.093,222.513L626.914,226.653L629.362,219.59L630.182,219.943L630.996,221.592L631.817,225.998L632.63,222.398L633.451,212.765L634.265,217.315L635.086,233.479L635.899,241.075L636.72,235.632L637.541,229.994L638.354,233.594L639.175,237.605L639.989,237.813L641.623,237.223L642.444,237.309L647.347,238.202L648.161,238.051L651.43,237.957L652.25,237.893L655.519,237.921L656.333,238.065L657.967,238.793L658.788,239.873L660.422,245.474L661.236,250.32L662.87,258.737L663.691,260.148L665.326,260.645L666.139,260.666L668.594,260.393L669.415,259.881L671.05,257.441L671.863,255.129L675.132,242.803L675.953,241.881L678.401,241.183L679.222,241.118L684.938,241.5L685.759,241.716L689.842,242.299L690.662,242.133L698.021,240.492L698.834,240.405L706.193,239.837L707.006,239.837L766.673,239.577L767.486,239.599L782.196,239.721L783.017,239.801L787.92,239.865L788.741,239.815L803.45,239.894L804.264,239.973L831.235,239.952L850.536,239.937" style="fill:none;fill-rule:nonzero;stroke:rgb(96,94,94);stroke-width:3px;stroke-linecap:butt;stroke-linejoin:miter;stroke-miterlimit:2;"/>
            </g>
            <g transform="matrix(1,0,0,1,0,395.12)">
                <rect x="749.88" y="271.88" width="108.72" height="61.92" style="fill:white;"/>
            </g>
            <g transform="matrix(1,0,0,1,0,349.28)">
                <path d="M753.48,325.76L775.08,325.76" style="fill:none;fill-rule:nonzero;stroke:rgb(237,30,36);stroke-width:5px;stroke-linecap:butt;stroke-linejoin:miter;stroke-miterlimit:4;"/>
            </g>
            <g transform="matrix(1,0,0,1,0,384.8)">
                <path d="M753.48,308L775.08,308" style="fill:none;fill-rule:nonzero;stroke:rgb(13,129,64);stroke-width:5px;stroke-linecap:butt;stroke-linejoin:miter;stroke-miterlimit:4;"/>
            </g>
            <g transform="matrix(1,0,0,1,0,421.28)">
                <path d="M753.48,289.76L775.08,289.76" style="fill:none;fill-rule:nonzero;stroke:rgb(58,83,164);stroke-width:5px;stroke-linecap:butt;stroke-linejoin:miter;stroke-miterlimit:4;"/>
            </g>
            <g transform="matrix(1,0,0,1,0,455.84)">
                <path d="M753.48,272.48L775.08,272.48" style="fill:none;fill-rule:nonzero;stroke:rgb(109,107,107);stroke-width:5px;stroke-linecap:butt;stroke-linejoin:miter;stroke-miterlimit:4;"/>
            </g>
            <g>
                <text x="779.88px" y="678.415px" style="font-family:'ArialMT', 'Arial', sans-serif;font-size:15px;fill:rgb(44,63,95);">% G</text>
                <text x="779.88px" y="696.895px" style="font-family:'ArialMT', 'Arial', sans-serif;font-size:15px;fill:rgb(44,63,95);">% <tspan x="796.546px " y="696.895px ">A</tspan></text>
                <text x="779.88px" y="715.375px" style="font-family:'ArialMT', 'Arial', sans-serif;font-size:15px;fill:rgb(44,63,95);">% <tspan x="797.103px " y="715.375px ">T</tspan></text>
                <g transform="matrix(15,0,0,15,808.21,733.855)">
                </g>
                <text x="779.88px" y="733.855px" style="font-family:'ArialMT', 'Arial', sans-serif;font-size:15px;fill:rgb(44,63,95);">% C</text>
            </g>
        </g>
    </g>
    <g transform="matrix(-4.16667,0,0,4.16667,9672.5,1394)">
        <path d="M1151.04,333.12L1170.36,333.12" style="fill:none;fill-rule:nonzero;stroke:rgb(250,163,58);stroke-width:5.5px;stroke-linecap:butt;stroke-linejoin:miter;stroke-miterlimit:4;"/>
    </g>
    <g transform="matrix(-4.16667,0,0,4.16667,9672.5,1576)">
        <path d="M1151.04,311.28L1170.36,311.28" style="fill:none;fill-rule:nonzero;stroke:rgb(179,118,176);stroke-width:5.5px;stroke-linecap:butt;stroke-linejoin:miter;stroke-miterlimit:4;"/>
    </g>
</svg>
